<svg xmlns="http://www.w3.org/2000/svg" width="64" height="64" fill="none" viewBox="0 0 64 64"><g clip-path="url(#clip0)"><path fill="#FFCEBF" d="M28.3963 12.0581V7.75114C28.3963 6.69777 27.5423 5.84377 26.4889 5.84377C25.4355 5.84377 24.5815 6.69777 24.5815 7.75114V19.2369V22.8168C24.5815 24.9186 26.2854 26.6225 28.3873 26.6225H35.1442C36.2693 26.6225 37.3367 26.1246 38.0598 25.2628L45.5518 16.3323C46.1658 15.6004 46.076 14.5108 45.3508 13.8891C44.6727 13.3079 43.6648 13.3334 43.0169 13.9483L40.5648 16.2758C40.3269 16.5016 39.9342 16.3346 39.9317 16.0066L39.8408 3.94564C39.8408 2.89227 38.9868 2.03827 37.9334 2.03827C36.88 2.03827 36.026 2.89227 36.026 3.94564V9.94489L28.3963 12.0581Z"/><path fill="#FFCEBF" d="M36.0261 12.0581V1.90737C36.0261 0.854 35.1721 0 34.1186 0C33.0652 0 32.2112 0.854 32.2112 1.90737V11.8053L36.0261 12.0581Z"/><path fill="#FFB09E" d="M34.2722 0.00611493C33.8665 -0.0261351 33.4867 0.0708649 33.165 0.25724C33.7347 0.587115 34.1188 1.20174 34.1188 1.90736V11.0391C34.1188 11.5414 34.5083 11.9575 35.0094 11.9907C35.5598 12.0272 36.0262 11.5906 36.0262 11.0391V1.96036C36.0262 0.95674 35.2727 0.0856149 34.2722 0.00611493Z"/><path fill="#FFCEBF" d="M32.2112 12.0581V3.94537C32.2112 2.89199 31.3572 2.03799 30.3039 2.03799C29.2505 2.03799 28.3965 2.89199 28.3965 3.94537V13.0154L32.2112 12.0581Z"/><path fill="#FFB09E" d="M30.4572 2.04414C30.0516 2.01189 29.6717 2.10889 29.3501 2.29526C29.9197 2.62514 30.3038 3.23976 30.3038 3.94539V11.8085C30.3038 12.3108 30.6933 12.7269 31.1945 12.7601C31.7448 12.7966 32.2112 12.36 32.2112 11.8085V3.99839C32.2112 2.99476 31.4577 2.12364 30.4572 2.04414Z"/><path fill="#FFB09E" d="M26.6425 5.84813C26.2369 5.81588 25.857 5.91288 25.5354 6.09925C26.105 6.42913 26.4892 7.04375 26.4892 7.74938V11.8068C26.4892 12.309 26.8787 12.7251 27.3798 12.7584C27.9302 12.7949 28.3965 12.3583 28.3965 11.8068V7.8025C28.3964 6.79888 27.643 5.92775 26.6425 5.84813Z"/><path fill="#FE646F" d="M24.5815 62.7314V29.1596C24.5815 27.7584 25.7174 26.6225 27.1187 26.6225H36.6097C38.0109 26.6225 39.1468 27.7584 39.1468 29.1596V62.7314C39.1468 63.432 38.5788 64 37.8782 64H25.85C25.1495 64 24.5815 63.432 24.5815 62.7314Z"/><path fill="#FD4755" d="M24.5815 31.2712H39.1468V33.1741H24.5815V31.2712Z"/><path fill="#8AC9FE" d="M43.3542 62.7314V47.9448C43.3542 46.6129 44.434 45.5331 45.7659 45.5331H54.787C56.1189 45.5331 57.1986 46.6129 57.1986 47.9448V62.7314C57.1986 63.432 56.6306 64 55.93 64H44.6229C43.9222 64 43.3542 63.432 43.3542 62.7314Z"/><path fill="#60B7FF" d="M43.3542 49.9048H57.1985V51.8076H43.3542V49.9048Z"/><path fill="#FFCEBF" d="M16.6937 31.6899V27.5961C16.6937 26.5949 17.5054 25.7831 18.5067 25.7831C19.5079 25.7831 20.3197 26.5949 20.3197 27.5961V38.5132V41.9159C20.3197 43.9136 18.7002 45.5332 16.7023 45.5332H10.2798C9.21043 45.5332 8.19581 45.0601 7.50856 44.2407L0.387433 35.7522C-0.196067 35.0566 -0.110941 34.0209 0.578434 33.43C1.22306 32.8775 2.18093 32.9017 2.79668 33.4862L5.08706 35.6602C5.32856 35.8895 5.72706 35.72 5.72956 35.3871L5.81556 23.9787C5.81556 22.9775 6.62731 22.1657 7.62856 22.1657C8.62981 22.1657 9.44156 22.9775 9.44156 23.9787V29.681L16.6937 31.6899Z"/><path fill="#FFCEBF" d="M9.44165 31.6899V22.0416C9.44165 21.0404 10.2534 20.2286 11.2547 20.2286C12.2559 20.2286 13.0677 21.0404 13.0677 22.0416V31.6379L9.44165 31.6899Z"/><path fill="#FFCEBF" d="M13.0676 31.6899V23.9787C13.0676 22.9775 13.8794 22.1657 14.8806 22.1657C15.8819 22.1657 16.6936 22.9775 16.6936 23.9787V32.7254L13.0676 31.6899Z"/><path fill="#FFB09E" d="M14.8807 22.1657C14.5872 22.1657 14.3109 22.237 14.0657 22.3609C14.6572 22.6595 15.0637 23.2709 15.0637 23.9787V31.6451C15.0637 32.009 15.3049 32.3289 15.6548 32.4287C16.1754 32.5774 16.6935 32.1865 16.6935 31.6451V23.9787C16.6937 22.9775 15.8819 22.1657 14.8807 22.1657Z"/><path fill="#FFB09E" d="M11.2547 20.2286C10.9612 20.2286 10.6849 20.2999 10.4397 20.4238C11.0312 20.7224 11.4377 21.3338 11.4377 22.0416V30.9765C11.4377 31.3404 11.6789 31.6603 12.0288 31.7601C12.5494 31.9088 13.0676 31.5179 13.0676 30.9765V22.0416C13.0677 21.0404 12.2559 20.2286 11.2547 20.2286Z"/><path fill="#FFB09E" d="M7.62872 22.1657C7.33522 22.1657 7.05897 22.237 6.81372 22.3609C7.40522 22.6595 7.81172 23.2709 7.81172 23.9787V31.6451C7.81172 32.009 8.05297 32.3289 8.40285 32.4287C8.92347 32.5774 9.4416 32.1865 9.4416 31.6451V23.9787C9.44172 22.9775 8.6301 22.1657 7.62872 22.1657Z"/><path fill="#FEE45A" d="M20.3197 62.7314V47.9447C20.3197 46.6129 19.24 45.5331 17.9081 45.5331H8.88697C7.55509 45.5331 6.47534 46.6129 6.47534 47.9447V62.7314C6.47534 63.432 7.04334 64 7.74397 64H19.0511C19.7517 64 20.3197 63.432 20.3197 62.7314Z"/><path fill="#FED402" d="M6.47534 49.9048H20.3196V51.8076H6.47534V49.9048Z"/><path fill="#FFCEBF" d="M46.9802 31.6899V27.5961C46.9802 26.5949 46.1685 25.7831 45.1672 25.7831C44.166 25.7831 43.3542 26.5949 43.3542 27.5961V38.5132V41.9159C43.3542 43.9136 44.9737 45.5332 46.9716 45.5332H53.394C54.4634 45.5332 55.478 45.0601 56.1652 44.2407L63.2864 35.7524C63.8699 35.0567 63.7847 34.021 63.0954 33.4301C62.4507 32.8776 61.4929 32.9019 60.8771 33.4864L58.5867 35.6604C58.3452 35.8896 57.9467 35.7201 57.9441 35.3872L57.8581 23.9789C57.8581 22.9776 57.0464 22.1659 56.0451 22.1659C55.0439 22.1659 54.2321 22.9776 54.2321 23.9789V29.6811L46.9802 31.6899Z"/><path fill="#FFCEBF" d="M54.2322 31.6899V22.0416C54.2322 21.0404 53.4205 20.2286 52.4192 20.2286C51.418 20.2286 50.6062 21.0404 50.6062 22.0416V31.6379L54.2322 31.6899Z"/><path fill="#FFCEBF" d="M50.6062 31.6899V23.9787C50.6062 22.9775 49.7945 22.1657 48.7932 22.1657C47.792 22.1657 46.9802 22.9775 46.9802 23.9787V32.7254L50.6062 31.6899Z"/><path fill="#FFB09E" d="M48.7933 22.1657C48.4998 22.1657 48.2235 22.237 47.9783 22.3609C48.5698 22.6595 48.9763 23.2709 48.9763 23.9787V31.6451C48.9763 32.009 49.2175 32.3289 49.5674 32.4287C50.088 32.5774 50.6061 32.1865 50.6061 31.6451V23.9787C50.6063 22.9775 49.7945 22.1657 48.7933 22.1657Z"/><path fill="#FFB09E" d="M52.4192 20.2286C52.1257 20.2286 51.8495 20.2999 51.6042 20.4238C52.1957 20.7224 52.6022 21.3338 52.6022 22.0416V30.9765C52.6022 31.3404 52.8435 31.6603 53.1934 31.7601C53.714 31.9088 54.2321 31.5179 54.2321 30.9765V22.0416C54.2322 21.0404 53.4205 20.2286 52.4192 20.2286Z"/><path fill="#FFB09E" d="M56.0479 22.1657C55.7544 22.1657 55.4782 22.237 55.2329 22.3609C55.8244 22.6595 56.2309 23.2709 56.2309 23.9787V31.6451C56.2309 32.009 56.4722 32.3289 56.822 32.4287C57.3427 32.5774 57.8608 32.1865 57.8608 31.6451V23.9787C57.8609 22.9775 57.0493 22.1657 56.0479 22.1657Z"/></g><defs><clipPath id="clip0"><rect width="64" height="64" fill="#fff"/></clipPath></defs></svg>