<svg xmlns="http://www.w3.org/2000/svg" width="64" height="64" fill="none" viewBox="0 0 64 64"><g clip-path="url(#clip0)"><path fill="#FE646F" d="M49.8718 9.73758C49.4841 6.76351 48.3738 4.38015 46.5719 2.6536C44.995 1.14259 42.9708 0.239072 40.7183 0.0402918C38.5915 -0.146596 36.4223 0.321438 34.6118 1.36028C33.334 2.09331 32.2951 3.08308 31.5694 4.23846C30.8436 3.08308 29.8048 2.09331 28.527 1.36028C26.7165 0.321313 24.5478 -0.146722 22.4204 0.0402918C20.168 0.239072 18.1438 1.14272 16.5669 2.65372C14.7649 4.38028 13.6547 6.76364 13.267 9.7377C12.8377 13.03 13.5408 16.3722 15.3569 19.6716C16.7787 22.255 18.8848 24.8168 21.617 27.2859C26.2263 31.4515 30.9781 33.8964 31.1782 33.9984C31.3017 34.0613 31.4355 34.0929 31.5694 34.0929C31.7032 34.0929 31.8371 34.0613 31.9606 33.9984C32.1607 33.8964 36.9125 31.4515 41.5218 27.2859C44.2538 24.8167 46.3601 22.255 47.7819 19.6716C49.598 16.372 50.301 13.0298 49.8718 9.73758Z"/><path fill="#FD4755" d="M49.8717 9.73756C49.4839 6.7635 48.3736 4.38014 46.5717 2.65359C44.9948 1.14258 42.9706 0.23906 40.7182 0.0402804C39.6832 -0.0507228 38.6383 0.0147444 37.6294 0.22429C39.3868 0.596939 40.9661 1.42423 42.2493 2.65371C44.0512 4.38027 45.1615 6.76362 45.5492 9.73769C45.9785 13.03 45.2754 16.3722 43.4593 19.6716C42.0375 22.2549 39.9313 24.8168 37.1992 27.2859C34.2499 29.9514 31.2442 31.9108 29.408 33.0041C30.4414 33.6194 31.1058 33.9616 31.1779 33.9984C31.3014 34.0613 31.4353 34.0929 31.5691 34.0929C31.703 34.0929 31.8368 34.0613 31.9603 33.9984C32.1604 33.8963 36.9122 31.4515 41.5215 27.2859C44.2535 24.8167 46.3598 22.2549 47.7816 19.6716C49.5979 16.372 50.3008 13.0298 49.8717 9.73756Z"/><path fill="#DB9975" d="M42.277 40.4919L45.2448 30.9302C45.6327 29.6799 46.8126 28.9269 48.0486 29.1397C48.7683 29.2635 49.401 29.7078 49.7845 30.3586C50.1679 31.0096 50.2639 31.802 50.0475 32.5328L49.0653 35.8519C49.0211 36.0008 48.9424 36.136 48.836 36.245L43.7532 41.4541C43.5813 41.6303 43.3555 41.7214 43.1276 41.7214C42.965 41.7214 42.8015 41.6749 42.6557 41.5801C42.3057 41.352 42.1494 40.9029 42.277 40.4919Z"/><path fill="#F7B081" d="M43.1275 41.7215C42.9649 41.7215 42.8013 41.6751 42.6555 41.5802C42.3057 41.3521 42.1494 40.903 42.277 40.492L45.2448 30.9303C45.5615 29.9093 46.4067 29.2204 47.3792 29.1179L44.1671 41.03L43.7531 41.4543C43.5811 41.6304 43.3554 41.7215 43.1275 41.7215Z"/><path fill="#DB9975" d="M47.3562 35.2952L49.3284 28.6317C49.7167 27.3197 51.014 26.5606 52.2818 26.9038C52.9336 27.0801 53.4935 27.5361 53.8179 28.155C54.1423 28.7738 54.2095 29.5141 54.0023 30.186L52.5728 34.8237C52.4763 35.1366 52.2308 35.3736 51.9258 35.4488C51.6208 35.5238 51.3002 35.4259 51.0813 35.1908C50.9226 35.0204 50.7104 34.925 50.4834 34.9223C50.2525 34.9192 50.0419 35.0095 49.8796 35.176L48.8363 36.2453C48.6645 36.4214 48.4386 36.5125 48.2107 36.5125C48.0502 36.5125 47.8885 36.4672 47.744 36.3745C47.3944 36.15 47.2348 35.7055 47.3562 35.2952Z"/><path fill="#DB9975" d="M44.3324 45.3557L51.1381 36.3683C51.4038 36.0175 51.3791 35.5113 51.0807 35.1908C50.8486 34.9414 50.7672 34.5776 50.8694 34.2458L53.4439 25.8947C53.8216 24.6692 55.0178 23.9148 56.2264 24.1409C56.919 24.2702 57.5277 24.7047 57.8966 25.333C58.2655 25.9614 58.3617 26.7273 58.16 27.4344L56.7766 32.2891C55.4731 36.8639 52.8747 40.8172 49.2625 43.7218L45.5773 46.685C45.4157 46.8149 45.2241 46.8786 45.0332 46.8786C44.8003 46.8786 44.5687 46.7836 44.3947 46.5979C44.0781 46.2596 44.0513 45.7269 44.3324 45.3557Z"/><path fill="#F7B081" d="M47.3563 35.2952L49.3284 28.6317C49.6235 27.6345 50.4442 26.9582 51.3774 26.841L48.7337 36.3342C48.579 36.4513 48.3957 36.5124 48.2105 36.5124C48.0499 36.5124 47.8883 36.4671 47.7438 36.3743C47.3944 36.15 47.2348 35.7055 47.3563 35.2952Z"/><path fill="#F7B081" d="M45.16 46.8679C45.1178 46.8742 45.0756 46.8785 45.0333 46.8785C44.8004 46.8785 44.5688 46.7835 44.3947 46.5977C44.0781 46.2596 44.0513 45.7269 44.3324 45.3557L51.1382 36.3683C51.4039 36.0175 51.3792 35.5112 51.0808 35.1908C50.8486 34.9414 50.7672 34.5776 50.8695 34.2458L53.4439 25.8947C53.7631 24.8595 54.6667 24.163 55.6681 24.1072L51.2605 38.8821L45.16 46.8679Z"/><path fill="#FFC89F" d="M33.8341 53.2132C33.8513 53.0258 34.2826 48.5828 36.6956 44.9861C38.8438 41.7841 41.8466 40.3211 42.6309 39.9797L48.629 33.8326C49.6701 32.7656 51.3445 32.7862 52.3615 33.8786C52.3959 33.9156 52.4292 33.9533 52.4612 33.9919C53.2403 34.9274 53.22 36.3328 52.4723 37.2961L45.0338 46.8785L51.3843 40.274C52.4441 39.1718 53.2316 37.8149 53.6785 36.3211L54.7139 32.8598L54.7117 32.8619C54.8375 32.4961 54.9557 32.1264 55.0626 31.7511L56.952 25.1206C56.9539 25.114 56.9558 25.1075 56.9578 25.1008C57.3668 23.7728 58.618 22.9603 59.9335 23.1691C60.7122 23.2925 61.3991 23.7647 61.818 24.4644C62.2369 25.164 62.3441 26.0182 62.1122 26.8077L59.2849 36.4338C59.1406 36.9254 58.9971 37.4271 58.8517 37.9349C57.5495 42.4864 56.0733 47.6452 52.5151 50.6936L45.9283 56.337V63.061C45.9283 63.5795 45.5277 63.9999 45.0335 63.9999H34.7249C34.2307 63.9999 33.8301 63.5795 33.8301 63.061V53.3031C33.83 53.2731 33.8314 53.2431 33.8341 53.2132Z"/><path fill="#FFB98A" d="M52.472 37.2963C53.2198 36.333 53.2401 34.9276 52.4609 33.992C52.4288 33.9534 52.3955 33.9156 52.3612 33.8787C52.2385 33.7469 52.1059 33.6316 51.9664 33.5311L44.8172 43.0196C44.1489 43.9021 44.2435 46.1149 45.0336 46.8786L52.472 37.2963Z"/><path fill="#FFB98A" d="M45.0332 46.8785L45.0336 46.8781L45.0332 46.8785Z"/><path fill="#FFB98A" d="M61.8174 24.4646C61.4415 23.8369 60.8499 23.3933 60.1701 23.2193L56.5954 35.3735C55.1783 40.1985 53.8422 45.6137 50.1148 48.8071L42.8413 54.7321V63.9999H45.033C45.5272 63.9999 45.9278 63.5795 45.9278 63.061V56.3369L52.5146 50.6936C56.0728 47.6452 57.5488 42.4864 58.8512 37.9349C58.9965 37.4271 59.1401 36.9255 59.2844 36.4338L62.1117 26.8077C62.3435 26.0182 62.2362 25.1642 61.8174 24.4646Z"/><path fill="#DB9975" d="M20.9552 40.4919L17.9875 30.9302C17.5995 29.6799 16.4197 28.9269 15.1836 29.1397C14.464 29.2635 13.8313 29.7078 13.4478 30.3586C13.0643 31.0096 12.9684 31.802 13.1847 32.5328L14.167 35.8519C14.2111 36.0008 14.2899 36.136 14.3963 36.245L19.4791 41.4541C19.651 41.6303 19.8767 41.7214 20.1046 41.7214C20.2672 41.7214 20.4308 41.6749 20.5766 41.5801C20.9265 41.352 21.0827 40.9029 20.9552 40.4919Z"/><path fill="#F7B081" d="M20.1043 41.7215C20.267 41.7215 20.4305 41.6751 20.5763 41.5802C20.9261 41.3521 21.0824 40.903 20.9549 40.492L17.9872 30.9303C17.6703 29.9093 16.8253 29.2204 15.8528 29.1179L19.0649 41.03L19.4789 41.4543C19.6507 41.6304 19.8766 41.7215 20.1043 41.7215Z"/><path fill="#DB9975" d="M15.8759 35.2952L13.9037 28.6317C13.5155 27.3197 12.2181 26.5606 10.9504 26.9038C10.2986 27.0801 9.73866 27.5361 9.41426 28.155C9.08986 28.7738 9.02269 29.5141 9.22981 30.186L10.6594 34.8237C10.7559 35.1366 11.0013 35.3736 11.3064 35.4488C11.6113 35.5238 11.9319 35.4259 12.1508 35.1908C12.3095 35.0204 12.5218 34.925 12.7487 34.9223C12.9797 34.9192 13.1903 35.0095 13.3525 35.176L14.3959 36.2453C14.5677 36.4214 14.7935 36.5125 15.0214 36.5125C15.182 36.5125 15.3437 36.4672 15.4881 36.3745C15.8377 36.15 15.9974 35.7055 15.8759 35.2952Z"/><path fill="#DB9975" d="M18.8998 45.3557L12.0941 36.3683C11.8284 36.0175 11.8531 35.5113 12.1515 35.1908C12.3837 34.9414 12.465 34.5776 12.3628 34.2458L9.78835 25.8947C9.41062 24.6692 8.21443 23.9148 7.00584 24.1409C6.31325 24.2702 5.70454 24.7047 5.33552 25.333C4.96661 25.9614 4.87057 26.7273 5.07208 27.4344L6.45547 32.2891C7.75903 36.8639 10.3575 40.8172 13.9696 43.7218L17.6549 46.685C17.8164 46.8149 18.008 46.8786 18.1989 46.8786C18.4318 46.8786 18.6634 46.7836 18.8374 46.5979C19.1542 46.2596 19.1809 45.7269 18.8998 45.3557Z"/><path fill="#F7B081" d="M15.8759 35.2952L13.9037 28.6317C13.6087 27.6345 12.788 26.9582 11.8547 26.841L14.4985 36.3342C14.6531 36.4513 14.8365 36.5124 15.0217 36.5124C15.1823 36.5124 15.3439 36.4671 15.4884 36.3743C15.8377 36.15 15.9974 35.7055 15.8759 35.2952Z"/><path fill="#F7B081" d="M18.0718 46.8679C18.1139 46.8742 18.1562 46.8785 18.1985 46.8785C18.4314 46.8785 18.663 46.7835 18.8371 46.5977C19.1537 46.2596 19.1804 45.7269 18.8994 45.3557L12.0936 36.3683C11.8279 36.0175 11.8526 35.5112 12.151 35.1908C12.3832 34.9414 12.4646 34.5776 12.3623 34.2458L9.78787 25.8947C9.46872 24.8595 8.56508 24.163 7.56372 24.1072L11.9713 38.8821L18.0718 46.8679Z"/><path fill="#FFC89F" d="M29.3981 53.2132C29.3809 53.0258 28.9496 48.5828 26.5366 44.9861C24.3885 41.7841 21.3857 40.3211 20.6014 39.9797L14.6033 33.8326C13.5622 32.7656 11.8878 32.7862 10.8708 33.8786C10.8363 33.9156 10.8032 33.9533 10.7711 33.9919C9.99198 34.9274 10.0123 36.3328 10.76 37.2961L18.1985 46.8785L11.8479 40.274C10.7881 39.1718 10.0007 37.8149 9.55376 36.3211L8.5184 32.8598L8.52055 32.8619C8.3948 32.4961 8.27656 32.1264 8.16966 31.7511L6.28029 25.1206C6.27838 25.114 6.27647 25.1075 6.27444 25.1008C5.86545 23.7728 4.61414 22.9603 3.29877 23.1691C2.52004 23.2925 1.83318 23.7647 1.41429 24.4644C0.995393 25.164 0.888135 26.0182 1.12007 26.8077L3.94733 36.4338C4.09169 36.9254 4.23522 37.4271 4.38054 37.9349C5.68291 42.4864 7.159 47.6452 10.7171 50.6936L17.3039 56.337V63.061C17.3039 63.5795 17.7046 63.9999 18.1987 63.9999H28.5074C29.0015 63.9999 29.4022 63.5795 29.4022 63.061V53.3031C29.4023 53.2731 29.4009 53.2431 29.3981 53.2132Z"/><path fill="#FFB98A" d="M26.5363 44.9862C24.3881 41.7842 21.3854 40.3213 20.601 39.9798L14.6029 33.8327C13.5618 32.7657 11.8875 32.7863 10.8705 33.8787C10.836 33.9157 10.8028 33.9535 10.7707 33.992C10.7704 33.9923 10.7701 33.9929 10.7698 33.9932L17.9829 41.7841C17.9829 41.7841 21.3793 43.0932 23.6836 46.528C25.988 49.9628 26.3861 54.3046 26.3861 54.3046V61.2782V64H28.507C29.0012 64 29.4018 63.5796 29.4018 63.0612V53.3032C29.4018 53.2731 29.4004 53.2432 29.3977 53.2133C29.3806 53.0258 28.9493 48.5828 26.5363 44.9862Z"/></g><defs><clipPath id="clip0"><rect width="64" height="64" fill="#fff"/></clipPath></defs></svg>