<svg version="1" xmlns="http://www.w3.org/2000/svg" width="400" height="400" viewBox="0 0 300.000000 300.000000"><path d="M65.2 18C47 22.8 31.4 35.7 22.5 53.2c-6.7 13.3-6.6 12.5-6.3 99.8.3 78.1.3 78.5 2.5 85 6.9 20 24.1 37 43.8 43.3 7 2.2 7.1 2.2 87.5 2.2s80.5 0 87.5-2.2c20-6.4 37.4-23.8 43.8-43.8 2.2-7 2.2-7.1 2.2-87.5s0-80.5-2.2-87.5C275 42.8 258 25.6 238 18.7c-6.5-2.2-6.7-2.2-86-2.4-75.7-.2-79.9-.1-86.8 1.7zM72 87.5V104h-7V71h7v16.5zm38 0V104h-7V71h7v16.5zm-25 3V104h-7V77h7v13.5zm12 0V104h-7V77h7v13.5zm66.1 22.7c1.9.6 5.8 2.7 8.6 4.5 5.7 3.8 5.7 3.9.9 9.6l-2.3 2.9-4.4-2.9c-3.9-2.5-5.3-2.8-12.1-2.8-6.7 0-8 .3-10.2 2.4-3.4 3.2-3.6 8.9-.3 12.5 1.2 1.4 6.9 4.6 12.6 7.1 19.5 8.6 23.6 13.4 23 26.8-.4 6.1-.9 7.9-3.4 11.4-7.9 11-23.2 14.1-38.5 8-5.1-2.1-13.1-7.4-13-8.7.1-.3 1.8-2.4 3.8-4.7l3.7-4.2 5.2 3.5c12.5 8.4 26.9 6.3 28.9-4.1 1-5.7-1.5-8.1-15.9-15.5-18.5-9.4-22-13.4-22-24.5 0-10 5.4-17.6 15-21.1 4.7-1.6 15.9-1.8 20.4-.2zm-91.9 28c.3 27.8.4 28.4 2.8 33.2 3.1 6.3 6.5 8.8 12.7 9.3 6.3.6 11-2 14.3-7.8 2.5-4.4 2.5-4.6 2.8-33.7l.3-29.2H117v24.6c0 32.5-1.6 42-8.3 49.9-4.5 5.4-11 7.9-20.7 8-17.4 0-26.3-8.3-29-27-.5-3.9-1-17.9-1-31.3V113h12.8l.4 28.2zm153.2-26.7c7.3 1.9 11.1 4.6 13.6 9.5 3.9 7.7 1.6 19.3-4.9 24.1-3.7 2.7-3.8 3.5-.8 4.5 7.2 2.2 11.7 9.3 11.7 18.4 0 7-2.6 12.7-7.6 16.8-6.2 5.2-11.4 6.2-31.1 6.2H188v-81h15.3c10.4 0 17.1.5 21.1 1.5z"/><path d="M201 135.6v11.7l8.8-.5c4.8-.3 10-1.2 11.5-1.9 5-2.3 7.2-9.6 4.6-15.3-1.8-4-6.6-5.6-16.3-5.6H201v11.6zM201 170.5v13.8l9.9-.6c15.3-.8 20.1-4.2 20.1-13.9 0-8.8-4.8-11.8-19.7-12.6l-10.3-.5v13.8z"/></svg>