<svg width="3514" height="1248" viewBox="0 0 3514 1248" fill="none" xmlns="http://www.w3.org/2000/svg">
<rect width="3514" height="1247" transform="translate(0 0.677856)" fill="#333333"/>
<path d="M336.63 826.343C315.523 826.343 296.452 823.381 279.418 817.456C262.754 811.161 248.312 801.348 236.092 788.017C224.243 774.686 214.985 757.651 208.319 736.914C202.024 715.807 198.877 690.256 198.877 660.261V456.407H263.31V665.26C263.31 684.886 264.976 701.55 268.309 715.251C272.012 728.582 277.011 739.321 283.306 747.468C289.972 755.615 297.748 761.54 306.636 765.243C315.523 768.575 325.521 770.242 336.63 770.242C347.74 770.242 357.923 768.575 367.181 765.243C376.438 761.54 384.4 755.615 391.065 747.468C397.731 739.321 402.915 728.582 406.618 715.251C410.321 701.55 412.173 684.886 412.173 665.26V456.407H473.829V660.261C473.829 690.256 470.681 715.807 464.386 736.914C458.091 757.651 448.833 774.686 436.613 788.017C424.763 801.348 410.321 811.161 393.287 817.456C376.624 823.381 357.738 826.343 336.63 826.343ZM637.416 826.343C612.976 826.343 589.276 821.714 566.317 812.457C543.729 803.199 523.732 790.053 506.328 773.019L544.099 729.138C557.06 741.358 571.872 751.356 588.536 759.133C605.199 766.539 621.863 770.242 638.527 770.242C659.264 770.242 675.002 765.983 685.741 757.466C696.48 748.949 701.849 737.655 701.849 723.583C701.849 716.177 700.368 709.882 697.406 704.698C694.813 699.513 690.925 695.07 685.741 691.367C680.927 687.293 675.002 683.59 667.966 680.257C661.301 676.925 653.895 673.592 645.748 670.259L595.757 648.596C586.869 644.893 577.982 640.264 569.095 634.71C560.577 629.155 552.801 622.49 545.765 614.713C538.729 606.937 532.99 597.864 528.546 587.496C524.473 577.127 522.436 565.277 522.436 551.946C522.436 537.504 525.398 524.173 531.323 511.953C537.618 499.363 546.136 488.439 556.874 479.181C567.613 469.924 580.389 462.703 595.201 457.518C610.384 452.334 626.862 449.742 644.637 449.742C665.744 449.742 686.111 454 705.737 462.517C725.364 470.664 742.213 481.773 756.284 495.845L723.512 536.949C711.662 527.321 699.442 519.73 686.852 514.175C674.261 508.621 660.19 505.843 644.637 505.843C627.233 505.843 613.346 509.731 602.978 517.508C592.609 524.914 587.425 535.283 587.425 548.614C587.425 555.649 588.906 561.759 591.868 566.944C595.201 571.758 599.46 576.201 604.644 580.275C610.198 583.978 616.494 587.496 623.53 590.828C630.565 593.791 637.786 596.753 645.192 599.716L694.628 620.268C705.367 624.712 715.18 629.896 724.068 635.821C732.955 641.746 740.546 648.596 746.841 656.373C753.507 664.149 758.691 673.222 762.394 683.59C766.097 693.588 767.949 705.253 767.949 718.584C767.949 733.396 764.986 747.283 759.062 760.244C753.137 773.204 744.435 784.684 732.955 794.682C721.846 804.31 708.144 812.086 691.851 818.011C675.928 823.566 657.783 826.343 637.416 826.343ZM806.232 819.678V456.407H922.323C941.209 456.407 958.428 458.074 973.981 461.406C989.904 464.369 1003.61 469.368 1015.08 476.404C1026.93 483.069 1036.01 492.142 1042.3 503.621C1048.97 515.101 1052.3 529.173 1052.3 545.836C1052.3 563.241 1047.86 579.349 1038.97 594.161C1030.08 608.973 1017.68 619.157 1001.75 624.712V626.933C1021.75 631.377 1038.23 640.82 1051.19 655.262C1064.52 669.333 1071.19 688.589 1071.19 713.03C1071.19 731.175 1067.67 746.913 1060.63 760.244C1053.6 773.575 1043.78 784.684 1031.19 793.571C1018.97 802.458 1004.35 809.124 987.312 813.568C970.278 817.641 951.763 819.678 931.766 819.678H806.232ZM870.666 606.381H916.769C942.32 606.381 960.65 601.753 971.759 592.495C983.239 583.237 988.978 570.832 988.978 555.279C988.978 537.504 983.053 524.914 971.204 517.508C959.354 510.102 941.579 506.399 917.88 506.399H870.666V606.381ZM870.666 769.686H925.101C951.763 769.686 972.315 764.872 986.757 755.244C1001.2 745.246 1008.42 730.064 1008.42 709.697C1008.42 690.441 1001.38 676.554 987.312 668.037C973.24 659.15 952.503 654.706 925.101 654.706H870.666V769.686Z" fill="#FFCA44"/>
<g clip-path="url(#clip0)">
<path d="M473 431.678L197 431.678V224.086C305.137 207.485 365.578 207.598 473 224.085V431.678Z" fill="#6B6A6A"/>
<rect x="224.327" y="250.035" width="31.8812" height="160.684" fill="#FFCA44"/>
<rect x="413.792" y="250.035" width="31.8811" height="160.684" fill="#FFCA44"/>
<rect x="286.267" y="276.982" width="31.8812" height="133.737" fill="#FFCA44"/>
<rect x="351.852" y="276.982" width="31.8812" height="133.737" fill="#FFCA44"/>
</g>
<rect x="310" y="856.678" width="45" height="179" rx="2.98634" fill="#6B6A6A"/>
<path d="M1370.58 492.58C1360.58 492.58 1351.23 490.807 1342.52 487.259C1333.81 483.711 1326.23 478.47 1319.78 471.536C1313.49 464.601 1308.49 456.055 1304.79 445.895C1301.08 435.735 1299.22 424.125 1299.22 411.062C1299.22 398.161 1301.08 386.631 1304.79 376.472C1308.66 366.151 1313.82 357.443 1320.27 350.347C1326.88 343.251 1334.54 337.849 1343.25 334.14C1352.12 330.431 1361.55 328.577 1371.55 328.577C1381.55 328.577 1390.42 330.592 1398.16 334.624C1405.9 338.656 1412.27 343.332 1417.27 348.654L1402.27 366.796C1398.08 362.603 1393.56 359.297 1388.72 356.878C1383.88 354.298 1378.4 353.008 1372.27 353.008C1365.82 353.008 1359.86 354.379 1354.37 357.12C1349.05 359.7 1344.38 363.49 1340.34 368.489C1336.47 373.327 1333.41 379.294 1331.15 386.389C1329.06 393.485 1328.01 401.467 1328.01 410.337C1328.01 428.398 1331.88 442.589 1339.62 452.91C1347.52 463.069 1358.16 468.149 1371.55 468.149C1378.64 468.149 1384.93 466.698 1390.42 463.795C1395.9 460.731 1400.9 456.78 1405.41 451.942L1420.41 469.601C1413.96 477.019 1406.54 482.743 1398.16 486.775C1389.93 490.645 1380.74 492.58 1370.58 492.58ZM1497.81 492.58C1487.49 492.58 1478.05 490.726 1469.51 487.017C1460.96 483.147 1453.62 477.664 1447.5 470.568C1441.37 463.311 1436.61 454.603 1433.22 444.444C1429.84 434.284 1428.14 422.754 1428.14 409.853C1428.14 397.113 1429.84 385.744 1433.22 375.746C1436.61 365.586 1441.37 357.039 1447.5 350.105C1453.62 343.171 1460.96 337.849 1469.51 334.14C1478.05 330.431 1487.49 328.577 1497.81 328.577C1508.13 328.577 1517.56 330.431 1526.11 334.14C1534.66 337.849 1542 343.171 1548.12 350.105C1554.41 357.039 1559.25 365.586 1562.64 375.746C1566.02 385.744 1567.72 397.113 1567.72 409.853C1567.72 422.754 1566.02 434.284 1562.64 444.444C1559.25 454.603 1554.41 463.311 1548.12 470.568C1542 477.664 1534.66 483.147 1526.11 487.017C1517.56 490.726 1508.13 492.58 1497.81 492.58ZM1497.81 468.149C1504.1 468.149 1509.74 466.778 1514.74 464.037C1519.74 461.296 1524.01 457.425 1527.56 452.426C1531.11 447.266 1533.85 441.138 1535.79 434.042C1537.72 426.785 1538.69 418.722 1538.69 409.853C1538.69 392.114 1534.98 378.245 1527.56 368.247C1520.31 358.088 1510.39 353.008 1497.81 353.008C1485.23 353.008 1475.23 358.088 1467.81 368.247C1460.56 378.245 1456.93 392.114 1456.93 409.853C1456.93 418.722 1457.9 426.785 1459.83 434.042C1461.77 441.138 1464.51 447.266 1468.06 452.426C1471.6 457.425 1475.88 461.296 1480.88 464.037C1485.88 466.778 1491.52 468.149 1497.81 468.149ZM1596.94 489.678V331.479H1628.63L1656.69 408.885C1658.47 413.884 1660.16 419.045 1661.77 424.366C1663.38 429.527 1665.08 434.687 1666.85 439.848H1667.82C1669.59 434.687 1671.21 429.527 1672.66 424.366C1674.27 419.045 1675.96 413.884 1677.74 408.885L1705.07 331.479H1737V489.678H1711.12V417.352C1711.12 413.643 1711.2 409.611 1711.36 405.257C1711.68 400.903 1712 396.549 1712.33 392.195C1712.65 387.679 1713.05 383.325 1713.54 379.132C1714.02 374.778 1714.42 370.747 1714.75 367.038H1713.78L1700.96 403.806L1675.08 474.922H1658.38L1632.26 403.806L1619.68 367.038H1618.71C1619.04 370.747 1619.36 374.778 1619.68 379.132C1620.17 383.325 1620.57 387.679 1620.89 392.195C1621.38 396.549 1621.7 400.903 1621.86 405.257C1622.18 409.611 1622.34 413.643 1622.34 417.352V489.678H1596.94ZM1774.76 489.678V331.479H1824.59C1833.3 331.479 1841.37 332.286 1848.78 333.898C1856.36 335.511 1862.89 338.252 1868.38 342.123C1873.86 345.993 1878.13 351.073 1881.2 357.362C1884.26 363.49 1885.79 371.15 1885.79 380.342C1885.79 389.05 1884.26 396.629 1881.2 403.08C1878.13 409.53 1873.86 414.933 1868.38 419.287C1863.06 423.48 1856.69 426.624 1849.27 428.721C1842.01 430.656 1834.11 431.623 1825.56 431.623H1802.82V489.678H1774.76ZM1802.82 409.127H1823.38C1846.61 409.127 1858.22 399.532 1858.22 380.342C1858.22 370.344 1855.15 363.49 1849.03 359.781C1843.06 355.911 1834.19 353.975 1822.42 353.975H1802.82V409.127ZM1972.4 492.58C1963.21 492.58 1954.9 491.29 1947.48 488.71C1940.23 485.969 1933.94 481.695 1928.62 475.89C1923.46 470.084 1919.42 462.666 1916.52 453.636C1913.78 444.444 1912.41 433.317 1912.41 420.254V331.479H1940.47V422.431C1940.47 430.978 1941.19 438.235 1942.65 444.202C1944.26 450.007 1946.44 454.684 1949.18 458.232C1952.08 461.779 1955.47 464.36 1959.34 465.972C1963.21 467.424 1967.56 468.149 1972.4 468.149C1977.24 468.149 1981.67 467.424 1985.7 465.972C1989.73 464.36 1993.2 461.779 1996.1 458.232C1999.01 454.684 2001.26 450.007 2002.88 444.202C2004.49 438.235 2005.3 430.978 2005.3 422.431V331.479H2032.15V420.254C2032.15 433.317 2030.78 444.444 2028.03 453.636C2025.29 462.666 2021.26 470.084 2015.94 475.89C2010.78 481.695 2004.49 485.969 1997.07 488.71C1989.82 491.29 1981.59 492.58 1972.4 492.58ZM2101.15 489.678V355.185H2055.43V331.479H2174.93V355.185H2129.21V489.678H2101.15ZM2198.85 489.678V331.479H2294.16V355.185H2226.91V395.581H2283.76V419.287H2226.91V465.972H2296.58V489.678H2198.85ZM2326.59 489.678V331.479H2380.05C2388.28 331.479 2395.94 332.286 2403.03 333.898C2410.13 335.511 2416.26 338.172 2421.42 341.881C2426.58 345.429 2430.61 350.186 2433.51 356.152C2436.57 362.119 2438.11 369.537 2438.11 378.407C2438.11 390.501 2435.2 400.258 2429.4 407.676C2423.75 415.094 2416.17 420.416 2406.66 423.641L2444.4 489.678H2412.95L2378.84 427.753H2354.65V489.678H2326.59ZM2354.65 405.499H2377.15C2387.95 405.499 2396.18 403.241 2401.82 398.726C2407.63 394.21 2410.53 387.437 2410.53 378.407C2410.53 369.215 2407.63 362.845 2401.82 359.297C2396.18 355.749 2387.95 353.975 2377.15 353.975H2354.65V405.499ZM2559.53 492.58C2548.89 492.58 2538.57 490.565 2528.57 486.533C2518.74 482.502 2510.03 476.777 2502.45 469.359L2518.9 450.249C2524.54 455.571 2530.99 459.925 2538.25 463.311C2545.51 466.537 2552.76 468.149 2560.02 468.149C2569.05 468.149 2575.9 466.295 2580.58 462.586C2585.26 458.877 2587.59 453.958 2587.59 447.83C2587.59 444.605 2586.95 441.863 2585.66 439.606C2584.53 437.348 2582.84 435.413 2580.58 433.8C2578.48 432.026 2575.9 430.414 2572.84 428.962C2569.94 427.511 2566.71 426.06 2563.16 424.608L2541.39 415.175C2537.52 413.562 2533.65 411.546 2529.78 409.127C2526.07 406.708 2522.69 403.806 2519.62 400.419C2516.56 397.032 2514.06 393.082 2512.12 388.566C2510.35 384.051 2509.46 378.89 2509.46 373.085C2509.46 366.796 2510.75 360.99 2513.33 355.669C2516.07 350.186 2519.78 345.429 2524.46 341.397C2529.14 337.365 2534.7 334.221 2541.15 331.963C2547.76 329.705 2554.94 328.577 2562.68 328.577C2571.87 328.577 2580.74 330.431 2589.29 334.14C2597.83 337.688 2605.17 342.526 2611.3 348.654L2597.03 366.554C2591.87 362.361 2586.55 359.055 2581.06 356.636C2575.58 354.217 2569.45 353.008 2562.68 353.008C2555.1 353.008 2549.05 354.701 2544.54 358.088C2540.02 361.313 2537.76 365.828 2537.76 371.634C2537.76 374.698 2538.41 377.358 2539.7 379.616C2541.15 381.713 2543.01 383.648 2545.26 385.422C2547.68 387.034 2550.42 388.566 2553.49 390.018C2556.55 391.308 2559.7 392.598 2562.92 393.888L2584.45 402.838C2589.13 404.773 2593.4 407.031 2597.27 409.611C2601.14 412.191 2604.45 415.175 2607.19 418.561C2610.09 421.948 2612.35 425.898 2613.96 430.414C2615.57 434.768 2616.38 439.848 2616.38 445.653C2616.38 452.104 2615.09 458.151 2612.51 463.795C2609.93 469.439 2606.14 474.438 2601.14 478.793C2596.3 482.985 2590.34 486.372 2583.24 488.952C2576.31 491.371 2568.4 492.58 2559.53 492.58ZM2705.86 492.58C2695.86 492.58 2686.51 490.807 2677.8 487.259C2669.09 483.711 2661.51 478.47 2655.06 471.536C2648.77 464.601 2643.78 456.055 2640.07 445.895C2636.36 435.735 2634.5 424.125 2634.5 411.062C2634.5 398.161 2636.36 386.631 2640.07 376.472C2643.94 366.151 2649.1 357.443 2655.55 350.347C2662.16 343.251 2669.82 337.849 2678.53 334.14C2687.4 330.431 2696.83 328.577 2706.83 328.577C2716.83 328.577 2725.7 330.592 2733.44 334.624C2741.18 338.656 2747.55 343.332 2752.55 348.654L2737.55 366.796C2733.36 362.603 2728.84 359.297 2724 356.878C2719.17 354.298 2713.68 353.008 2707.55 353.008C2701.1 353.008 2695.14 354.379 2689.65 357.12C2684.33 359.7 2679.66 363.49 2675.62 368.489C2671.75 373.327 2668.69 379.294 2666.43 386.389C2664.34 393.485 2663.29 401.467 2663.29 410.337C2663.29 428.398 2667.16 442.589 2674.9 452.91C2682.8 463.069 2693.44 468.149 2706.83 468.149C2713.92 468.149 2720.21 466.698 2725.7 463.795C2731.18 460.731 2736.18 456.78 2740.69 451.942L2755.69 469.601C2749.24 477.019 2741.82 482.743 2733.44 486.775C2725.21 490.645 2716.02 492.58 2705.86 492.58ZM2779.68 489.678V331.479H2807.74V489.678H2779.68ZM2845.53 489.678V331.479H2940.84V355.185H2873.59V395.581H2930.44V419.287H2873.59V465.972H2943.26V489.678H2845.53ZM2973.27 489.678V331.479H3002.06L3051.4 420.496L3067.61 454.119H3068.58C3067.93 445.895 3067.13 437.106 3066.16 427.753C3065.35 418.238 3064.95 409.047 3064.95 400.177V331.479H3091.8V489.678H3063.01L3013.67 400.661L2997.46 367.038H2996.49C2997.14 375.423 2997.86 384.212 2998.67 393.404C2999.64 402.596 3000.12 411.627 3000.12 420.496V489.678H2973.27ZM3192.73 492.58C3182.73 492.58 3173.38 490.807 3164.67 487.259C3155.96 483.711 3148.38 478.47 3141.93 471.536C3135.64 464.601 3130.64 456.055 3126.93 445.895C3123.23 435.735 3121.37 424.125 3121.37 411.062C3121.37 398.161 3123.23 386.631 3126.93 376.472C3130.8 366.151 3135.96 357.443 3142.42 350.347C3149.03 343.251 3156.69 337.849 3165.4 334.14C3174.26 330.431 3183.7 328.577 3193.7 328.577C3203.69 328.577 3212.56 330.592 3220.3 334.624C3228.05 338.656 3234.42 343.332 3239.41 348.654L3224.42 366.796C3220.22 362.603 3215.71 359.297 3210.87 356.878C3206.03 354.298 3200.55 353.008 3194.42 353.008C3187.97 353.008 3182.01 354.379 3176.52 357.12C3171.2 359.7 3166.52 363.49 3162.49 368.489C3158.62 373.327 3155.56 379.294 3153.3 386.389C3151.2 393.485 3150.16 401.467 3150.16 410.337C3150.16 428.398 3154.03 442.589 3161.77 452.91C3169.67 463.069 3180.31 468.149 3193.7 468.149C3200.79 468.149 3207.08 466.698 3212.56 463.795C3218.05 460.731 3223.05 456.78 3227.56 451.942L3242.56 469.601C3236.11 477.019 3228.69 482.743 3220.3 486.775C3212.08 490.645 3202.89 492.58 3192.73 492.58ZM3266.55 489.678V331.479H3361.85V355.185H3294.61V395.581H3351.45V419.287H3294.61V465.972H3364.27V489.678H3266.55Z" fill="#E5E5E5"/>
<path d="M1366.16 705.58C1356.97 705.58 1348.67 704.29 1341.25 701.71C1333.99 698.969 1327.7 694.695 1322.38 688.89C1317.22 683.084 1313.19 675.666 1310.28 666.636C1307.54 657.444 1306.17 646.317 1306.17 633.254V544.479H1334.23V635.431C1334.23 643.978 1334.96 651.235 1336.41 657.202C1338.02 663.007 1340.2 667.684 1342.94 671.232C1345.84 674.779 1349.23 677.36 1353.1 678.972C1356.97 680.424 1361.32 681.149 1366.16 681.149C1371 681.149 1375.43 680.424 1379.47 678.972C1383.5 677.36 1386.97 674.779 1389.87 671.232C1392.77 667.684 1395.03 663.007 1396.64 657.202C1398.25 651.235 1399.06 643.978 1399.06 635.431V544.479H1425.91V633.254C1425.91 646.317 1424.54 657.444 1421.8 666.636C1419.06 675.666 1415.02 683.084 1409.7 688.89C1404.54 694.695 1398.25 698.969 1390.84 701.71C1383.58 704.29 1375.35 705.58 1366.16 705.58ZM1484.76 702.678V544.479H1513.54L1562.89 633.496L1579.09 667.119H1580.06C1579.42 658.895 1578.61 650.106 1577.64 640.753C1576.84 631.238 1576.43 622.047 1576.43 613.177V544.479H1603.28V702.678H1574.5L1525.15 613.661L1508.95 580.038H1507.98C1508.62 588.423 1509.35 597.212 1510.16 606.404C1511.12 615.596 1511.61 624.627 1511.61 633.496V702.678H1484.76ZM1662.85 702.678V544.479H1705.18C1729.37 544.479 1748.24 551.01 1761.78 564.073C1775.33 577.135 1782.1 596.728 1782.1 622.853C1782.1 635.915 1780.33 647.445 1776.78 657.444C1773.4 667.442 1768.4 675.828 1761.78 682.601C1755.33 689.212 1747.43 694.211 1738.08 697.598C1728.89 700.984 1718.41 702.678 1706.63 702.678H1662.85ZM1690.91 679.94H1703.25C1719.37 679.94 1731.71 675.344 1740.26 666.152C1748.96 656.799 1753.32 642.366 1753.32 622.853C1753.32 603.501 1748.96 589.391 1740.26 580.521C1731.55 571.652 1719.21 567.217 1703.25 567.217H1690.91V679.94ZM1833.39 702.678V544.479H1928.69V568.185H1861.45V608.581H1918.29V632.287H1861.45V678.972H1931.11V702.678H1833.39ZM1982.9 702.678V544.479H2036.35C2044.58 544.479 2052.24 545.286 2059.33 546.898C2066.43 548.511 2072.56 551.172 2077.72 554.881C2082.88 558.429 2086.91 563.186 2089.81 569.152C2092.88 575.119 2094.41 582.537 2094.41 591.407C2094.41 603.501 2091.51 613.258 2085.7 620.676C2080.06 628.094 2072.48 633.416 2062.96 636.641L2100.7 702.678H2069.25L2035.15 640.753H2010.96V702.678H1982.9ZM2010.96 618.499H2033.45C2044.26 618.499 2052.48 616.241 2058.13 611.726C2063.93 607.21 2066.83 600.437 2066.83 591.407C2066.83 582.215 2063.93 575.845 2058.13 572.297C2052.48 568.749 2044.26 566.975 2033.45 566.975H2010.96V618.499ZM2211.68 705.58C2201.04 705.58 2191.12 703.807 2181.93 700.259C2172.9 696.711 2164.99 691.47 2158.22 684.536C2151.61 677.601 2146.45 669.055 2142.74 658.895C2139.03 648.735 2137.18 637.125 2137.18 624.062C2137.18 611.161 2139.11 599.631 2142.98 589.472C2146.85 579.151 2152.09 570.443 2158.7 563.347C2165.48 556.251 2173.38 550.849 2182.41 547.14C2191.6 543.431 2201.44 541.577 2211.92 541.577C2223.21 541.577 2232.72 543.673 2240.46 547.866C2248.37 551.897 2254.82 556.493 2259.82 561.654L2244.82 579.796C2240.79 575.926 2236.27 572.7 2231.27 570.12C2226.43 567.379 2220.31 566.008 2212.89 566.008C2205.79 566.008 2199.34 567.379 2193.54 570.12C2187.89 572.7 2182.97 576.49 2178.78 581.489C2174.75 586.327 2171.6 592.294 2169.35 599.389C2167.09 606.485 2165.96 614.467 2165.96 623.337C2165.96 641.398 2169.99 655.589 2178.06 665.91C2186.28 676.069 2198.37 681.149 2214.34 681.149C2218.85 681.149 2223.13 680.585 2227.16 679.456C2231.19 678.166 2234.5 676.392 2237.08 674.134V640.027H2207.08V617.047H2262.23V686.713C2256.91 692.034 2249.82 696.55 2240.95 700.259C2232.24 703.807 2222.48 705.58 2211.68 705.58ZM2316.64 702.678V544.479H2370.1C2378.33 544.479 2385.99 545.286 2393.08 546.898C2400.18 548.511 2406.31 551.172 2411.47 554.881C2416.63 558.429 2420.66 563.186 2423.56 569.152C2426.62 575.119 2428.16 582.537 2428.16 591.407C2428.16 603.501 2425.25 613.258 2419.45 620.676C2413.8 628.094 2406.22 633.416 2396.71 636.641L2434.45 702.678H2403L2368.89 640.753H2344.7V702.678H2316.64ZM2344.7 618.499H2367.2C2378 618.499 2386.23 616.241 2391.87 611.726C2397.68 607.21 2400.58 600.437 2400.58 591.407C2400.58 582.215 2397.68 575.845 2391.87 572.297C2386.23 568.749 2378 566.975 2367.2 566.975H2344.7V618.499ZM2510.14 618.499L2504.58 637.85H2544.98L2539.41 618.499C2536.83 610.113 2534.33 601.486 2531.91 592.616C2529.66 583.747 2527.4 574.958 2525.14 566.25H2524.17C2521.92 575.119 2519.66 583.989 2517.4 592.858C2515.14 601.566 2512.72 610.113 2510.14 618.499ZM2457.17 702.678L2508.69 544.479H2541.59L2593.11 702.678H2563.6L2551.27 659.863H2498.05L2485.71 702.678H2457.17ZM2631.96 702.678V544.479H2674.3C2698.49 544.479 2717.35 551.01 2730.9 564.073C2744.45 577.135 2751.22 596.728 2751.22 622.853C2751.22 635.915 2749.44 647.445 2745.9 657.444C2742.51 667.442 2737.51 675.828 2730.9 682.601C2724.45 689.212 2716.55 694.211 2707.19 697.598C2698 700.984 2687.52 702.678 2675.75 702.678H2631.96ZM2660.02 679.94H2672.36C2688.49 679.94 2700.82 675.344 2709.37 666.152C2718.08 656.799 2722.43 642.366 2722.43 622.853C2722.43 603.501 2718.08 589.391 2709.37 580.521C2700.66 571.652 2688.33 567.217 2672.36 567.217H2660.02V679.94ZM2861.76 705.58C2852.57 705.58 2844.27 704.29 2836.85 701.71C2829.59 698.969 2823.3 694.695 2817.98 688.89C2812.82 683.084 2808.79 675.666 2805.89 666.636C2803.15 657.444 2801.77 646.317 2801.77 633.254V544.479H2829.83V635.431C2829.83 643.978 2830.56 651.235 2832.01 657.202C2833.62 663.007 2835.8 667.684 2838.54 671.232C2841.44 674.779 2844.83 677.36 2848.7 678.972C2852.57 680.424 2856.93 681.149 2861.76 681.149C2866.6 681.149 2871.04 680.424 2875.07 678.972C2879.1 677.36 2882.57 674.779 2885.47 671.232C2888.37 667.684 2890.63 663.007 2892.24 657.202C2893.86 651.235 2894.66 643.978 2894.66 635.431V544.479H2921.51V633.254C2921.51 646.317 2920.14 657.444 2917.4 666.636C2914.66 675.666 2910.63 683.084 2905.3 688.89C2900.14 694.695 2893.86 698.969 2886.44 701.71C2879.18 704.29 2870.96 705.58 2861.76 705.58ZM3009.46 618.499L3003.9 637.85H3044.3L3038.73 618.499C3036.15 610.113 3033.65 601.486 3031.23 592.616C3028.98 583.747 3026.72 574.958 3024.46 566.25H3023.49C3021.24 575.119 3018.98 583.989 3016.72 592.858C3014.46 601.566 3012.04 610.113 3009.46 618.499ZM2956.49 702.678L3008.01 544.479H3040.91L3092.43 702.678H3062.92L3050.59 659.863H2997.37L2985.03 702.678H2956.49ZM3147.63 702.678V568.185H3101.91V544.479H3221.4V568.185H3175.69V702.678H3147.63ZM3267.1 702.678V544.479H3362.4V568.185H3295.16V608.581H3352V632.287H3295.16V678.972H3364.82V702.678H3267.1ZM1358.16 932.774C1346.81 932.774 1335.8 930.624 1325.14 926.324C1314.64 922.024 1305.36 915.918 1297.27 908.006L1314.82 887.624C1320.84 893.3 1327.72 897.944 1335.46 901.556C1343.2 904.996 1350.94 906.716 1358.68 906.716C1368.31 906.716 1375.62 904.738 1380.61 900.782C1385.59 896.826 1388.09 891.58 1388.09 885.044C1388.09 881.604 1387.4 878.68 1386.02 876.272C1384.82 873.864 1383.01 871.8 1380.61 870.08C1378.37 868.188 1375.62 866.468 1372.35 864.92C1369.25 863.372 1365.81 861.824 1362.03 860.276L1338.81 850.214C1334.68 848.494 1330.55 846.344 1326.43 843.764C1322.47 841.184 1318.86 838.088 1315.59 834.476C1312.32 830.864 1309.66 826.65 1307.59 821.834C1305.7 817.018 1304.75 811.514 1304.75 805.322C1304.75 798.614 1306.13 792.422 1308.88 786.746C1311.81 780.898 1315.76 775.824 1320.75 771.524C1325.74 767.224 1331.67 763.87 1338.55 761.462C1345.6 759.054 1353.26 757.85 1361.51 757.85C1371.32 757.85 1380.78 759.828 1389.89 763.784C1399.01 767.568 1406.84 772.728 1413.37 779.264L1398.15 798.356C1392.65 793.884 1386.97 790.358 1381.12 787.778C1375.27 785.198 1368.74 783.908 1361.51 783.908C1353.43 783.908 1346.98 785.714 1342.16 789.326C1337.35 792.766 1334.94 797.582 1334.94 803.774C1334.94 807.042 1335.63 809.88 1337 812.288C1338.55 814.524 1340.53 816.588 1342.94 818.48C1345.52 820.2 1348.44 821.834 1351.71 823.382C1354.98 824.758 1358.33 826.134 1361.77 827.51L1384.73 837.056C1389.72 839.12 1394.28 841.528 1398.41 844.28C1402.54 847.032 1406.06 850.214 1408.99 853.826C1412.08 857.438 1414.49 861.652 1416.21 866.468C1417.93 871.112 1418.79 876.53 1418.79 882.722C1418.79 889.602 1417.41 896.052 1414.66 902.072C1411.91 908.092 1407.87 913.424 1402.54 918.068C1397.38 922.54 1391.01 926.152 1383.44 928.904C1376.05 931.484 1367.62 932.774 1358.16 932.774ZM1496.55 929.678V786.23H1447.79V760.946H1575.24V786.23H1526.48V929.678H1496.55ZM1684.6 932.774C1674.8 932.774 1665.94 931.398 1658.03 928.646C1650.29 925.722 1643.58 921.164 1637.91 914.972C1632.4 908.78 1628.1 900.868 1625.01 891.236C1622.08 881.432 1620.62 869.564 1620.62 855.632V760.946H1650.55V857.954C1650.55 867.07 1651.32 874.81 1652.87 881.174C1654.59 887.366 1656.91 892.354 1659.84 896.138C1662.93 899.922 1666.54 902.674 1670.67 904.394C1674.8 905.942 1679.44 906.716 1684.6 906.716C1689.76 906.716 1694.49 905.942 1698.79 904.394C1703.09 902.674 1706.79 899.922 1709.89 896.138C1712.98 892.354 1715.39 887.366 1717.11 881.174C1718.83 874.81 1719.69 867.07 1719.69 857.954V760.946H1748.33V855.632C1748.33 869.564 1746.87 881.432 1743.94 891.236C1741.02 900.868 1736.72 908.78 1731.04 914.972C1725.54 921.164 1718.83 925.722 1710.92 928.646C1703.18 931.398 1694.41 932.774 1684.6 932.774ZM1808.52 929.678V760.946H1853.67C1879.47 760.946 1899.59 767.912 1914.04 781.844C1928.49 795.776 1935.71 816.674 1935.71 844.538C1935.71 858.47 1933.82 870.768 1930.03 881.432C1926.42 892.096 1921.09 901.04 1914.04 908.264C1907.16 915.316 1898.73 920.648 1888.75 924.26C1878.95 927.872 1867.77 929.678 1855.21 929.678H1808.52ZM1838.44 905.426H1851.6C1868.8 905.426 1881.96 900.524 1891.08 890.72C1900.36 880.744 1905.01 865.35 1905.01 844.538C1905.01 823.898 1900.36 808.848 1891.08 799.388C1881.79 789.928 1868.63 785.198 1851.6 785.198H1838.44V905.426ZM1987.83 929.678V760.946H2089.48V786.23H2017.75V829.316H2078.38V854.6H2017.75V904.394H2092.06V929.678H1987.83ZM2144.71 929.678V760.946H2175.41L2228.05 855.89L2245.33 891.752H2246.36C2245.68 882.98 2244.82 873.606 2243.78 863.63C2242.92 853.482 2242.49 843.678 2242.49 834.218V760.946H2271.13V929.678H2240.43L2187.8 834.734L2170.51 798.872H2169.48C2170.17 807.816 2170.94 817.19 2171.8 826.994C2172.83 836.798 2173.35 846.43 2173.35 855.89V929.678H2144.71ZM2366.14 929.678V786.23H2317.38V760.946H2444.83V786.23H2396.07V929.678H2366.14ZM2542.64 929.678V760.946H2596.56C2605.33 760.946 2613.33 761.72 2620.55 763.268C2627.95 764.644 2634.31 766.966 2639.64 770.234C2645.15 773.33 2649.36 777.544 2652.29 782.876C2655.38 788.208 2656.93 794.744 2656.93 802.484C2656.93 810.568 2654.87 818.05 2650.74 824.93C2646.61 831.81 2640.85 836.54 2633.45 839.12V840.152C2642.74 842.216 2650.39 846.602 2656.41 853.31C2662.61 859.846 2665.7 868.79 2665.7 880.142C2665.7 888.57 2664.07 895.88 2660.8 902.072C2657.53 908.264 2652.97 913.424 2647.13 917.552C2641.45 921.68 2634.66 924.776 2626.74 926.84C2618.83 928.732 2610.23 929.678 2600.94 929.678H2542.64ZM2572.56 830.606H2593.98C2605.85 830.606 2614.36 828.456 2619.52 824.156C2624.85 819.856 2627.52 814.094 2627.52 806.87C2627.52 798.614 2624.77 792.766 2619.26 789.326C2613.76 785.886 2605.5 784.166 2594.49 784.166H2572.56V830.606ZM2572.56 906.458H2597.85C2610.23 906.458 2619.78 904.222 2626.49 899.75C2633.19 895.106 2636.55 888.054 2636.55 878.594C2636.55 869.65 2633.28 863.2 2626.74 859.244C2620.21 855.116 2610.58 853.052 2597.85 853.052H2572.56V906.458ZM2780.17 932.774C2769.16 932.774 2759.1 930.796 2749.99 926.84C2740.87 922.712 2733.04 916.864 2726.51 909.296C2719.97 901.556 2714.9 892.268 2711.29 881.432C2707.67 870.596 2705.87 858.298 2705.87 844.538C2705.87 830.95 2707.67 818.824 2711.29 808.16C2714.9 797.324 2719.97 788.208 2726.51 780.812C2733.04 773.416 2740.87 767.74 2749.99 763.784C2759.1 759.828 2769.16 757.85 2780.17 757.85C2791.18 757.85 2801.24 759.828 2810.36 763.784C2819.47 767.74 2827.3 773.416 2833.84 780.812C2840.54 788.208 2845.7 797.324 2849.32 808.16C2852.93 818.824 2854.73 830.95 2854.73 844.538C2854.73 858.298 2852.93 870.596 2849.32 881.432C2845.7 892.268 2840.54 901.556 2833.84 909.296C2827.3 916.864 2819.47 922.712 2810.36 926.84C2801.24 930.796 2791.18 932.774 2780.17 932.774ZM2780.17 906.716C2786.88 906.716 2792.9 905.254 2798.23 902.33C2803.56 899.406 2808.12 895.278 2811.91 889.946C2815.69 884.442 2818.61 877.906 2820.68 870.338C2822.74 862.598 2823.77 853.998 2823.77 844.538C2823.77 825.618 2819.82 810.826 2811.91 800.162C2804.17 789.326 2793.59 783.908 2780.17 783.908C2766.76 783.908 2756.09 789.326 2748.18 800.162C2740.44 810.826 2736.57 825.618 2736.57 844.538C2736.57 853.998 2737.6 862.598 2739.67 870.338C2741.73 877.906 2744.65 884.442 2748.44 889.946C2752.22 895.278 2756.78 899.406 2762.11 902.33C2767.44 905.254 2773.46 906.716 2780.17 906.716ZM2938.6 839.894L2932.67 860.534H2975.75L2969.82 839.894C2967.07 830.95 2964.4 821.748 2961.82 812.288C2959.41 802.828 2957 793.454 2954.6 784.166H2953.56C2951.16 793.626 2948.75 803.086 2946.34 812.546C2943.93 821.834 2941.35 830.95 2938.6 839.894ZM2882.1 929.678L2937.05 760.946H2972.14L3027.09 929.678H2995.62L2982.46 884.012H2925.7L2912.54 929.678H2882.1ZM3065.95 929.678V760.946H3122.97C3131.74 760.946 3139.91 761.806 3147.48 763.526C3155.05 765.246 3161.58 768.084 3167.09 772.04C3172.59 775.824 3176.89 780.898 3179.99 787.262C3183.26 793.626 3184.89 801.538 3184.89 810.998C3184.89 823.898 3181.79 834.304 3175.6 842.216C3169.58 850.128 3161.5 855.804 3151.35 859.244L3191.6 929.678H3158.06L3121.68 863.63H3095.88V929.678H3065.95ZM3095.88 839.894H3119.87C3131.4 839.894 3140.17 837.486 3146.19 832.67C3152.38 827.854 3155.48 820.63 3155.48 810.998C3155.48 801.194 3152.38 794.4 3146.19 790.616C3140.17 786.832 3131.4 784.94 3119.87 784.94H3095.88V839.894ZM3236.7 929.678V760.946H3281.85C3307.65 760.946 3327.77 767.912 3342.22 781.844C3356.67 795.776 3363.89 816.674 3363.89 844.538C3363.89 858.47 3362 870.768 3358.21 881.432C3354.6 892.096 3349.27 901.04 3342.22 908.264C3335.34 915.316 3326.91 920.648 3316.93 924.26C3307.13 927.872 3295.95 929.678 3283.39 929.678H3236.7ZM3266.62 905.426H3279.78C3296.98 905.426 3310.14 900.524 3319.26 890.72C3328.54 880.744 3333.19 865.35 3333.19 844.538C3333.19 823.898 3328.54 808.848 3319.26 799.388C3309.97 789.928 3296.81 785.198 3279.78 785.198H3266.62V905.426Z" fill="#FFCA44"/>
<defs>
<clipPath id="clip0">
<rect width="276" height="220" fill="white" transform="translate(197 211.678)"/>
</clipPath>
</defs>
</svg>
