<svg xmlns="http://www.w3.org/2000/svg" width="3514" height="1247" fill="none" viewBox="0 0 3514 1247"><path fill="#FFCA44" d="M335.32 828.696C314.116 828.696 294.958 825.72 277.846 819.768C261.106 813.444 246.598 803.586 234.322 790.194C222.418 776.802 213.118 759.69 206.422 738.858C200.098 717.654 196.936 691.986 196.936 661.854V457.068H261.664V666.876C261.664 686.592 263.338 703.332 266.686 717.096C270.406 730.488 275.428 741.276 281.752 749.46C288.448 757.644 296.26 763.596 305.188 767.316C314.116 770.664 324.16 772.338 335.32 772.338C346.48 772.338 356.71 770.664 366.01 767.316C375.31 763.596 383.308 757.644 390.004 749.46C396.7 741.276 401.908 730.488 405.628 717.096C409.348 703.332 411.208 686.592 411.208 666.876V457.068H473.147V661.854C473.147 691.986 469.985 717.654 463.66 738.858C457.336 759.69 448.036 776.802 435.76 790.194C423.856 803.586 409.348 813.444 392.236 819.768C375.496 825.72 356.524 828.696 335.32 828.696ZM637.482 828.696C612.93 828.696 589.122 824.046 566.058 814.746C543.366 805.446 523.278 792.24 505.794 775.128L543.738 731.046C556.758 743.322 571.638 753.366 588.378 761.178C605.118 768.618 621.858 772.338 638.598 772.338C659.43 772.338 675.24 768.06 686.028 759.504C696.816 750.948 702.21 739.602 702.21 725.466C702.21 718.026 700.722 711.702 697.746 706.494C695.142 701.286 691.236 696.822 686.028 693.102C681.192 689.01 675.24 685.29 668.172 681.942C661.476 678.594 654.036 675.246 645.852 671.898L595.632 650.136C586.704 646.416 577.776 641.766 568.848 636.186C560.292 630.606 552.48 623.91 545.412 616.098C538.344 608.286 532.578 599.172 528.114 588.756C524.022 578.34 521.976 566.436 521.976 553.044C521.976 538.536 524.952 525.144 530.904 512.868C537.228 500.22 545.784 489.246 556.572 479.946C567.36 470.646 580.194 463.392 595.074 458.184C610.326 452.976 626.88 450.372 644.736 450.372C665.94 450.372 686.4 454.65 706.116 463.206C725.832 471.39 742.758 482.55 756.894 496.686L723.972 537.978C712.068 528.306 699.792 520.68 687.144 515.1C674.496 509.52 660.36 506.73 644.736 506.73C627.252 506.73 613.302 510.636 602.886 518.448C592.47 525.888 587.262 536.304 587.262 549.696C587.262 556.764 588.75 562.902 591.726 568.11C595.074 572.946 599.352 577.41 604.56 581.502C610.14 585.222 616.464 588.756 623.532 592.104C630.6 595.08 637.854 598.056 645.294 601.032L694.956 621.678C705.744 626.142 715.602 631.35 724.53 637.302C733.458 643.254 741.084 650.136 747.408 657.948C754.104 665.76 759.312 674.874 763.032 685.29C766.752 695.334 768.612 707.052 768.612 720.444C768.612 735.324 765.636 749.274 759.684 762.294C753.732 775.314 744.99 786.846 733.458 796.89C722.298 806.562 708.534 814.374 692.166 820.326C676.17 825.906 657.942 828.696 637.482 828.696ZM807.07 822V457.068H923.692C942.664 457.068 959.962 458.742 975.586 462.09C991.582 465.066 1005.35 470.088 1016.88 477.156C1028.78 483.852 1037.9 492.966 1044.22 504.498C1050.92 516.03 1054.26 530.166 1054.26 546.906C1054.26 564.39 1049.8 580.572 1040.87 595.452C1031.94 610.332 1019.48 620.562 1003.49 626.142V628.374C1023.57 632.838 1040.13 642.324 1053.15 656.832C1066.54 670.968 1073.24 690.312 1073.24 714.864C1073.24 733.092 1069.7 748.902 1062.63 762.294C1055.57 775.686 1045.71 786.846 1033.06 795.774C1020.78 804.702 1006.09 811.398 988.978 815.862C971.866 819.954 953.266 822 933.178 822H807.07ZM871.798 607.728H918.112C943.78 607.728 962.194 603.078 973.354 593.778C984.886 584.478 990.652 572.016 990.652 556.392C990.652 538.536 984.7 525.888 972.796 518.448C960.892 511.008 943.036 507.288 919.228 507.288H871.798V607.728ZM871.798 771.78H926.482C953.266 771.78 973.912 766.944 988.42 757.272C1002.93 747.228 1010.18 731.976 1010.18 711.516C1010.18 692.172 1003.11 678.222 988.978 669.666C974.842 660.738 954.01 656.274 926.482 656.274H871.798V771.78Z"/><path fill="#333" d="M473 431L197 431V223.408C305.136 206.808 365.577 206.921 473 223.408V431Z"/><rect width="31.881" height="160.684" x="224.327" y="249.357" fill="#FFCA44"/><rect width="31.881" height="160.684" x="413.792" y="249.357" fill="#FFCA44"/><rect width="31.881" height="133.737" x="286.267" y="276.304" fill="#FFCA44"/><rect width="31.881" height="133.737" x="351.852" y="276.304" fill="#FFCA44"/><rect width="45" height="179" x="310" y="856" fill="#333" rx="3"/><path fill="#333" d="M1370.58 491.903C1360.58 491.903 1351.23 490.129 1342.52 486.581C1333.81 483.033 1326.23 477.792 1319.78 470.858C1313.49 463.924 1308.49 455.377 1304.79 445.217C1301.08 435.058 1299.22 423.447 1299.22 410.385C1299.22 397.484 1301.08 385.953 1304.79 375.794C1308.66 365.473 1313.82 356.765 1320.27 349.669C1326.88 342.574 1334.54 337.171 1343.25 333.462C1352.12 329.753 1361.55 327.899 1371.55 327.899C1381.55 327.899 1390.42 329.915 1398.16 333.946C1405.9 337.978 1412.27 342.654 1417.27 347.976L1402.27 366.118C1398.08 361.925 1393.56 358.619 1388.72 356.2C1383.88 353.62 1378.4 352.33 1372.27 352.33C1365.82 352.33 1359.86 353.701 1354.37 356.442C1349.05 359.023 1344.38 362.812 1340.34 367.811C1336.47 372.649 1333.41 378.616 1331.15 385.711C1329.06 392.807 1328.01 400.789 1328.01 409.659C1328.01 427.72 1331.88 441.911 1339.62 452.232C1347.52 462.392 1358.16 467.471 1371.55 467.471C1378.64 467.471 1384.93 466.02 1390.42 463.117C1395.9 460.053 1400.9 456.102 1405.41 451.265L1420.41 468.923C1413.96 476.341 1406.54 482.066 1398.16 486.097C1389.93 489.968 1380.74 491.903 1370.58 491.903ZM1497.81 491.903C1487.49 491.903 1478.05 490.048 1469.51 486.339C1460.96 482.469 1453.62 476.986 1447.5 469.89C1441.37 462.634 1436.61 453.925 1433.22 443.766C1429.84 433.606 1428.14 422.076 1428.14 409.175C1428.14 396.435 1429.84 385.066 1433.22 375.068C1436.61 364.909 1441.37 356.362 1447.5 349.427C1453.62 342.493 1460.96 337.171 1469.51 333.462C1478.05 329.753 1487.49 327.899 1497.81 327.899C1508.13 327.899 1517.56 329.753 1526.11 333.462C1534.66 337.171 1542 342.493 1548.12 349.427C1554.41 356.362 1559.25 364.909 1562.64 375.068C1566.02 385.066 1567.72 396.435 1567.72 409.175C1567.72 422.076 1566.02 433.606 1562.64 443.766C1559.25 453.925 1554.41 462.634 1548.12 469.89C1542 476.986 1534.66 482.469 1526.11 486.339C1517.56 490.048 1508.13 491.903 1497.81 491.903ZM1497.81 467.471C1504.1 467.471 1509.74 466.101 1514.74 463.359C1519.74 460.618 1524.01 456.748 1527.56 451.748C1531.11 446.588 1533.85 440.46 1535.79 433.364C1537.72 426.108 1538.69 418.045 1538.69 409.175C1538.69 391.436 1534.98 377.568 1527.56 367.569C1520.31 357.41 1510.39 352.33 1497.81 352.33C1485.23 352.33 1475.23 357.41 1467.81 367.569C1460.56 377.568 1456.93 391.436 1456.93 409.175C1456.93 418.045 1457.9 426.108 1459.83 433.364C1461.77 440.46 1464.51 446.588 1468.06 451.748C1471.6 456.748 1475.88 460.618 1480.88 463.359C1485.88 466.101 1491.52 467.471 1497.81 467.471ZM1596.94 489V330.802H1628.63L1656.69 408.208C1658.47 413.207 1660.16 418.367 1661.77 423.689C1663.38 428.849 1665.08 434.01 1666.85 439.17H1667.82C1669.59 434.01 1671.21 428.849 1672.66 423.689C1674.27 418.367 1675.96 413.207 1677.74 408.208L1705.07 330.802H1737V489H1711.12V416.674C1711.12 412.965 1711.2 408.933 1711.36 404.579C1711.68 400.225 1712 395.871 1712.33 391.517C1712.65 387.002 1713.05 382.647 1713.54 378.455C1714.02 374.101 1714.42 370.069 1714.75 366.36H1713.78L1700.96 403.128L1675.08 474.244H1658.38L1632.26 403.128L1619.68 366.36H1618.71C1619.04 370.069 1619.36 374.101 1619.68 378.455C1620.17 382.647 1620.57 387.002 1620.89 391.517C1621.38 395.871 1621.7 400.225 1621.86 404.579C1622.18 408.933 1622.34 412.965 1622.34 416.674V489H1596.94ZM1774.76 489V330.802H1824.59C1833.3 330.802 1841.37 331.608 1848.78 333.221C1856.36 334.833 1862.89 337.575 1868.38 341.445C1873.86 345.315 1878.13 350.395 1881.2 356.684C1884.26 362.812 1885.79 370.472 1885.79 379.664C1885.79 388.372 1884.26 395.952 1881.2 402.402C1878.13 408.853 1873.86 414.255 1868.38 418.609C1863.06 422.802 1856.69 425.946 1849.27 428.043C1842.01 429.978 1834.11 430.946 1825.56 430.946H1802.82V489H1774.76ZM1802.82 408.449H1823.38C1846.61 408.449 1858.22 398.854 1858.22 379.664C1858.22 369.666 1855.15 362.812 1849.03 359.103C1843.06 355.233 1834.19 353.298 1822.42 353.298H1802.82V408.449ZM1972.4 491.903C1963.21 491.903 1954.9 490.613 1947.48 488.032C1940.23 485.291 1933.94 481.018 1928.62 475.212C1923.46 469.407 1919.42 461.989 1916.52 452.958C1913.78 443.766 1912.41 432.639 1912.41 419.577V330.802H1940.47V421.754C1940.47 430.3 1941.19 437.557 1942.65 443.524C1944.26 449.329 1946.44 454.006 1949.18 457.554C1952.08 461.102 1955.47 463.682 1959.34 465.294C1963.21 466.746 1967.56 467.471 1972.4 467.471C1977.24 467.471 1981.67 466.746 1985.7 465.294C1989.73 463.682 1993.2 461.102 1996.1 457.554C1999.01 454.006 2001.26 449.329 2002.88 443.524C2004.49 437.557 2005.3 430.3 2005.3 421.754V330.802H2032.15V419.577C2032.15 432.639 2030.78 443.766 2028.03 452.958C2025.29 461.989 2021.26 469.407 2015.94 475.212C2010.78 481.018 2004.49 485.291 1997.07 488.032C1989.82 490.613 1981.59 491.903 1972.4 491.903ZM2101.15 489V354.507H2055.43V330.802H2174.93V354.507H2129.21V489H2101.15ZM2198.85 489V330.802H2294.16V354.507H2226.91V394.903H2283.76V418.609H2226.91V465.294H2296.58V489H2198.85ZM2326.59 489V330.802H2380.05C2388.28 330.802 2395.94 331.608 2403.03 333.221C2410.13 334.833 2416.26 337.494 2421.42 341.203C2426.58 344.751 2430.61 349.508 2433.51 355.475C2436.57 361.441 2438.11 368.86 2438.11 377.729C2438.11 389.824 2435.2 399.58 2429.4 406.998C2423.75 414.416 2416.17 419.738 2406.66 422.963L2444.4 489H2412.95L2378.84 427.075H2354.65V489H2326.59ZM2354.65 404.821H2377.15C2387.95 404.821 2396.18 402.563 2401.82 398.048C2407.63 393.533 2410.53 386.76 2410.53 377.729C2410.53 368.537 2407.63 362.167 2401.82 358.619C2396.18 355.072 2387.95 353.298 2377.15 353.298H2354.65V404.821ZM2559.53 491.903C2548.89 491.903 2538.57 489.887 2528.57 485.855C2518.74 481.824 2510.03 476.099 2502.45 468.681L2518.9 449.571C2524.54 454.893 2530.99 459.247 2538.25 462.634C2545.51 465.859 2552.76 467.471 2560.02 467.471C2569.05 467.471 2575.9 465.617 2580.58 461.908C2585.26 458.199 2587.59 453.28 2587.59 447.152C2587.59 443.927 2586.95 441.186 2585.66 438.928C2584.53 436.67 2582.84 434.735 2580.58 433.123C2578.48 431.349 2575.9 429.736 2572.84 428.285C2569.94 426.833 2566.71 425.382 2563.16 423.931L2541.39 414.497C2537.52 412.884 2533.65 410.868 2529.78 408.449C2526.07 406.031 2522.69 403.128 2519.62 399.741C2516.56 396.355 2514.06 392.404 2512.12 387.888C2510.35 383.373 2509.46 378.213 2509.46 372.407C2509.46 366.118 2510.75 360.313 2513.33 354.991C2516.07 349.508 2519.78 344.751 2524.46 340.719C2529.14 336.688 2534.7 333.543 2541.15 331.285C2547.76 329.028 2554.94 327.899 2562.68 327.899C2571.87 327.899 2580.74 329.753 2589.29 333.462C2597.83 337.01 2605.17 341.848 2611.3 347.976L2597.03 365.876C2591.87 361.683 2586.55 358.377 2581.06 355.959C2575.58 353.54 2569.45 352.33 2562.68 352.33C2555.1 352.33 2549.05 354.023 2544.54 357.41C2540.02 360.635 2537.76 365.15 2537.76 370.956C2537.76 374.02 2538.41 376.681 2539.7 378.938C2541.15 381.035 2543.01 382.97 2545.26 384.744C2547.68 386.356 2550.42 387.888 2553.49 389.34C2556.55 390.63 2559.7 391.92 2562.92 393.21L2584.45 402.16C2589.13 404.095 2593.4 406.353 2597.27 408.933C2601.14 411.513 2604.45 414.497 2607.19 417.883C2610.09 421.27 2612.35 425.221 2613.96 429.736C2615.57 434.09 2616.38 439.17 2616.38 444.975C2616.38 451.426 2615.09 457.473 2612.51 463.117C2609.93 468.762 2606.14 473.761 2601.14 478.115C2596.3 482.308 2590.34 485.694 2583.24 488.274C2576.31 490.693 2568.4 491.903 2559.53 491.903ZM2705.86 491.903C2695.86 491.903 2686.51 490.129 2677.8 486.581C2669.09 483.033 2661.51 477.792 2655.06 470.858C2648.77 463.924 2643.78 455.377 2640.07 445.217C2636.36 435.058 2634.5 423.447 2634.5 410.385C2634.5 397.484 2636.36 385.953 2640.07 375.794C2643.94 365.473 2649.1 356.765 2655.55 349.669C2662.16 342.574 2669.82 337.171 2678.53 333.462C2687.4 329.753 2696.83 327.899 2706.83 327.899C2716.83 327.899 2725.7 329.915 2733.44 333.946C2741.18 337.978 2747.55 342.654 2752.55 347.976L2737.55 366.118C2733.36 361.925 2728.84 358.619 2724 356.2C2719.17 353.62 2713.68 352.33 2707.55 352.33C2701.1 352.33 2695.14 353.701 2689.65 356.442C2684.33 359.023 2679.66 362.812 2675.62 367.811C2671.75 372.649 2668.69 378.616 2666.43 385.711C2664.34 392.807 2663.29 400.789 2663.29 409.659C2663.29 427.72 2667.16 441.911 2674.9 452.232C2682.8 462.392 2693.44 467.471 2706.83 467.471C2713.92 467.471 2720.21 466.02 2725.7 463.117C2731.18 460.053 2736.18 456.102 2740.69 451.265L2755.69 468.923C2749.24 476.341 2741.82 482.066 2733.44 486.097C2725.21 489.968 2716.02 491.903 2705.86 491.903ZM2779.68 489V330.802H2807.74V489H2779.68ZM2845.53 489V330.802H2940.84V354.507H2873.59V394.903H2930.44V418.609H2873.59V465.294H2943.26V489H2845.53ZM2973.27 489V330.802H3002.06L3051.4 419.818L3067.61 453.442H3068.58C3067.93 445.217 3067.13 436.428 3066.16 427.075C3065.35 417.561 3064.95 408.369 3064.95 399.499V330.802H3091.8V489H3063.01L3013.67 399.983L2997.46 366.36H2996.49C2997.14 374.746 2997.86 383.534 2998.67 392.726C2999.64 401.918 3000.12 410.949 3000.12 419.818V489H2973.27ZM3192.73 491.903C3182.73 491.903 3173.38 490.129 3164.67 486.581C3155.96 483.033 3148.38 477.792 3141.93 470.858C3135.64 463.924 3130.64 455.377 3126.93 445.217C3123.23 435.058 3121.37 423.447 3121.37 410.385C3121.37 397.484 3123.23 385.953 3126.93 375.794C3130.8 365.473 3135.96 356.765 3142.42 349.669C3149.03 342.574 3156.69 337.171 3165.4 333.462C3174.26 329.753 3183.7 327.899 3193.7 327.899C3203.69 327.899 3212.56 329.915 3220.3 333.946C3228.05 337.978 3234.42 342.654 3239.41 347.976L3224.42 366.118C3220.22 361.925 3215.71 358.619 3210.87 356.2C3206.03 353.62 3200.55 352.33 3194.42 352.33C3187.97 352.33 3182.01 353.701 3176.52 356.442C3171.2 359.023 3166.52 362.812 3162.49 367.811C3158.62 372.649 3155.56 378.616 3153.3 385.711C3151.2 392.807 3150.16 400.789 3150.16 409.659C3150.16 427.72 3154.03 441.911 3161.77 452.232C3169.67 462.392 3180.31 467.471 3193.7 467.471C3200.79 467.471 3207.08 466.02 3212.56 463.117C3218.05 460.053 3223.05 456.102 3227.56 451.265L3242.56 468.923C3236.11 476.341 3228.69 482.066 3220.3 486.097C3212.08 489.968 3202.89 491.903 3192.73 491.903ZM3266.55 489V330.802H3361.85V354.507H3294.61V394.903H3351.45V418.609H3294.61V465.294H3364.27V489H3266.55Z"/><path fill="#FFCA44" d="M1366.16 704.903C1356.97 704.903 1348.67 703.613 1341.25 701.032C1333.99 698.291 1327.7 694.018 1322.38 688.212C1317.22 682.407 1313.19 674.989 1310.28 665.958C1307.54 656.766 1306.17 645.639 1306.17 632.577V543.802H1334.23V634.754C1334.23 643.3 1334.96 650.557 1336.41 656.524C1338.02 662.329 1340.2 667.006 1342.94 670.554C1345.84 674.102 1349.23 676.682 1353.1 678.294C1356.97 679.746 1361.32 680.471 1366.16 680.471C1371 680.471 1375.43 679.746 1379.47 678.294C1383.5 676.682 1386.97 674.102 1389.87 670.554C1392.77 667.006 1395.03 662.329 1396.64 656.524C1398.25 650.557 1399.06 643.3 1399.06 634.754V543.802H1425.91V632.577C1425.91 645.639 1424.54 656.766 1421.8 665.958C1419.06 674.989 1415.02 682.407 1409.7 688.212C1404.54 694.018 1398.25 698.291 1390.84 701.032C1383.58 703.613 1375.35 704.903 1366.16 704.903ZM1484.76 702V543.802H1513.54L1562.89 632.818L1579.09 666.442H1580.06C1579.42 658.217 1578.61 649.428 1577.64 640.075C1576.84 630.561 1576.43 621.369 1576.43 612.499V543.802H1603.28V702H1574.5L1525.15 612.983L1508.95 579.36H1507.98C1508.62 587.746 1509.35 596.534 1510.16 605.726C1511.12 614.918 1511.61 623.949 1511.61 632.818V702H1484.76ZM1662.85 702V543.802H1705.18C1729.37 543.802 1748.24 550.333 1761.78 563.395C1775.33 576.457 1782.1 596.051 1782.1 622.175C1782.1 635.237 1780.33 646.768 1776.78 656.766C1773.4 666.764 1768.4 675.15 1761.78 681.923C1755.33 688.535 1747.43 693.534 1738.08 696.92C1728.89 700.307 1718.41 702 1706.63 702H1662.85ZM1690.91 679.262H1703.25C1719.37 679.262 1731.71 674.666 1740.26 665.474C1748.96 656.121 1753.32 641.688 1753.32 622.175C1753.32 602.824 1748.96 588.713 1740.26 579.844C1731.55 570.974 1719.21 566.54 1703.25 566.54H1690.91V679.262ZM1833.39 702V543.802H1928.69V567.507H1861.45V607.903H1918.29V631.609H1861.45V678.294H1931.11V702H1833.39ZM1982.9 702V543.802H2036.35C2044.58 543.802 2052.24 544.608 2059.33 546.221C2066.43 547.833 2072.56 550.494 2077.72 554.203C2082.88 557.751 2086.91 562.508 2089.81 568.475C2092.88 574.441 2094.41 581.86 2094.41 590.729C2094.41 602.824 2091.51 612.58 2085.7 619.998C2080.06 627.416 2072.48 632.738 2062.96 635.963L2100.7 702H2069.25L2035.15 640.075H2010.96V702H1982.9ZM2010.96 617.821H2033.45C2044.26 617.821 2052.48 615.563 2058.13 611.048C2063.93 606.533 2066.83 599.76 2066.83 590.729C2066.83 581.537 2063.93 575.167 2058.13 571.619C2052.48 568.072 2044.26 566.298 2033.45 566.298H2010.96V617.821ZM2211.68 704.903C2201.04 704.903 2191.12 703.129 2181.93 699.581C2172.9 696.033 2164.99 690.792 2158.22 683.858C2151.61 676.924 2146.45 668.377 2142.74 658.217C2139.03 648.058 2137.18 636.447 2137.18 623.385C2137.18 610.484 2139.11 598.953 2142.98 588.794C2146.85 578.473 2152.09 569.765 2158.7 562.669C2165.48 555.574 2173.38 550.171 2182.41 546.462C2191.6 542.753 2201.44 540.899 2211.92 540.899C2223.21 540.899 2232.72 542.995 2240.46 547.188C2248.37 551.22 2254.82 555.816 2259.82 560.976L2244.82 579.118C2240.79 575.248 2236.27 572.023 2231.27 569.442C2226.43 566.701 2220.31 565.33 2212.89 565.33C2205.79 565.33 2199.34 566.701 2193.54 569.442C2187.89 572.023 2182.97 575.812 2178.78 580.811C2174.75 585.649 2171.6 591.616 2169.35 598.711C2167.09 605.807 2165.96 613.789 2165.96 622.659C2165.96 640.72 2169.99 654.911 2178.06 665.232C2186.28 675.392 2198.37 680.471 2214.34 680.471C2218.85 680.471 2223.13 679.907 2227.16 678.778C2231.19 677.488 2234.5 675.714 2237.08 673.457V639.35H2207.08V616.37H2262.23V686.035C2256.91 691.357 2249.82 695.872 2240.95 699.581C2232.24 703.129 2222.48 704.903 2211.68 704.903ZM2316.64 702V543.802H2370.1C2378.33 543.802 2385.99 544.608 2393.08 546.221C2400.18 547.833 2406.31 550.494 2411.47 554.203C2416.63 557.751 2420.66 562.508 2423.56 568.475C2426.62 574.441 2428.16 581.86 2428.16 590.729C2428.16 602.824 2425.25 612.58 2419.45 619.998C2413.8 627.416 2406.22 632.738 2396.71 635.963L2434.45 702H2403L2368.89 640.075H2344.7V702H2316.64ZM2344.7 617.821H2367.2C2378 617.821 2386.23 615.563 2391.87 611.048C2397.68 606.533 2400.58 599.76 2400.58 590.729C2400.58 581.537 2397.68 575.167 2391.87 571.619C2386.23 568.072 2378 566.298 2367.2 566.298H2344.7V617.821ZM2510.14 617.821L2504.58 637.173H2544.98L2539.41 617.821C2536.83 609.435 2534.33 600.808 2531.91 591.938C2529.66 583.069 2527.4 574.28 2525.14 565.572H2524.17C2521.92 574.441 2519.66 583.311 2517.4 592.18C2515.14 600.888 2512.72 609.435 2510.14 617.821ZM2457.17 702L2508.69 543.802H2541.59L2593.11 702H2563.6L2551.27 659.185H2498.05L2485.71 702H2457.17ZM2631.96 702V543.802H2674.3C2698.49 543.802 2717.35 550.333 2730.9 563.395C2744.45 576.457 2751.22 596.051 2751.22 622.175C2751.22 635.237 2749.44 646.768 2745.9 656.766C2742.51 666.764 2737.51 675.15 2730.9 681.923C2724.45 688.535 2716.55 693.534 2707.19 696.92C2698 700.307 2687.52 702 2675.75 702H2631.96ZM2660.02 679.262H2672.36C2688.49 679.262 2700.82 674.666 2709.37 665.474C2718.08 656.121 2722.43 641.688 2722.43 622.175C2722.43 602.824 2718.08 588.713 2709.37 579.844C2700.66 570.974 2688.33 566.54 2672.36 566.54H2660.02V679.262ZM2861.76 704.903C2852.57 704.903 2844.27 703.613 2836.85 701.032C2829.59 698.291 2823.3 694.018 2817.98 688.212C2812.82 682.407 2808.79 674.989 2805.89 665.958C2803.15 656.766 2801.77 645.639 2801.77 632.577V543.802H2829.83V634.754C2829.83 643.3 2830.56 650.557 2832.01 656.524C2833.62 662.329 2835.8 667.006 2838.54 670.554C2841.44 674.102 2844.83 676.682 2848.7 678.294C2852.57 679.746 2856.93 680.471 2861.76 680.471C2866.6 680.471 2871.04 679.746 2875.07 678.294C2879.1 676.682 2882.57 674.102 2885.47 670.554C2888.37 667.006 2890.63 662.329 2892.24 656.524C2893.86 650.557 2894.66 643.3 2894.66 634.754V543.802H2921.51V632.577C2921.51 645.639 2920.14 656.766 2917.4 665.958C2914.66 674.989 2910.63 682.407 2905.3 688.212C2900.14 694.018 2893.86 698.291 2886.44 701.032C2879.18 703.613 2870.96 704.903 2861.76 704.903ZM3009.46 617.821L3003.9 637.173H3044.3L3038.73 617.821C3036.15 609.435 3033.65 600.808 3031.23 591.938C3028.98 583.069 3026.72 574.28 3024.46 565.572H3023.49C3021.24 574.441 3018.98 583.311 3016.72 592.18C3014.46 600.888 3012.04 609.435 3009.46 617.821ZM2956.49 702L3008.01 543.802H3040.91L3092.43 702H3062.92L3050.59 659.185H2997.37L2985.03 702H2956.49ZM3147.63 702V567.507H3101.91V543.802H3221.4V567.507H3175.69V702H3147.63ZM3267.1 702V543.802H3362.4V567.507H3295.16V607.903H3352V631.609H3295.16V678.294H3364.82V702H3267.1ZM1358.16 932.096C1346.81 932.096 1335.8 929.946 1325.14 925.646C1314.64 921.346 1305.36 915.24 1297.27 907.328L1314.82 886.946C1320.84 892.622 1327.72 897.266 1335.46 900.878C1343.2 904.318 1350.94 906.038 1358.68 906.038C1368.31 906.038 1375.62 904.06 1380.61 900.104C1385.59 896.148 1388.09 890.902 1388.09 884.366C1388.09 880.926 1387.4 878.002 1386.02 875.594C1384.82 873.186 1383.01 871.122 1380.61 869.402C1378.37 867.51 1375.62 865.79 1372.35 864.242C1369.25 862.694 1365.81 861.146 1362.03 859.598L1338.81 849.536C1334.68 847.816 1330.55 845.666 1326.43 843.086C1322.47 840.506 1318.86 837.41 1315.59 833.798C1312.32 830.186 1309.66 825.972 1307.59 821.156C1305.7 816.34 1304.75 810.836 1304.75 804.644C1304.75 797.936 1306.13 791.744 1308.88 786.068C1311.81 780.22 1315.76 775.146 1320.75 770.846C1325.74 766.546 1331.67 763.192 1338.55 760.784C1345.6 758.376 1353.26 757.172 1361.51 757.172C1371.32 757.172 1380.78 759.15 1389.89 763.106C1399.01 766.89 1406.84 772.05 1413.37 778.586L1398.15 797.678C1392.65 793.206 1386.97 789.68 1381.12 787.1C1375.27 784.52 1368.74 783.23 1361.51 783.23C1353.43 783.23 1346.98 785.036 1342.16 788.648C1337.35 792.088 1334.94 796.904 1334.94 803.096C1334.94 806.364 1335.63 809.202 1337 811.61C1338.55 813.846 1340.53 815.91 1342.94 817.802C1345.52 819.522 1348.44 821.156 1351.71 822.704C1354.98 824.08 1358.33 825.456 1361.77 826.832L1384.73 836.378C1389.72 838.442 1394.28 840.85 1398.41 843.602C1402.54 846.354 1406.06 849.536 1408.99 853.148C1412.08 856.76 1414.49 860.974 1416.21 865.79C1417.93 870.434 1418.79 875.852 1418.79 882.044C1418.79 888.924 1417.41 895.374 1414.66 901.394C1411.91 907.414 1407.87 912.746 1402.54 917.39C1397.38 921.862 1391.01 925.474 1383.44 928.226C1376.05 930.806 1367.62 932.096 1358.16 932.096ZM1496.55 929V785.552H1447.79V760.268H1575.24V785.552H1526.48V929H1496.55ZM1684.6 932.096C1674.8 932.096 1665.94 930.72 1658.03 927.968C1650.29 925.044 1643.58 920.486 1637.91 914.294C1632.4 908.102 1628.1 900.19 1625.01 890.558C1622.08 880.754 1620.62 868.886 1620.62 854.954V760.268H1650.55V857.276C1650.55 866.392 1651.32 874.132 1652.87 880.496C1654.59 886.688 1656.91 891.676 1659.84 895.46C1662.93 899.244 1666.54 901.996 1670.67 903.716C1674.8 905.264 1679.44 906.038 1684.6 906.038C1689.76 906.038 1694.49 905.264 1698.79 903.716C1703.09 901.996 1706.79 899.244 1709.89 895.46C1712.98 891.676 1715.39 886.688 1717.11 880.496C1718.83 874.132 1719.69 866.392 1719.69 857.276V760.268H1748.33V854.954C1748.33 868.886 1746.87 880.754 1743.94 890.558C1741.02 900.19 1736.72 908.102 1731.04 914.294C1725.54 920.486 1718.83 925.044 1710.92 927.968C1703.18 930.72 1694.41 932.096 1684.6 932.096ZM1808.52 929V760.268H1853.67C1879.47 760.268 1899.59 767.234 1914.04 781.166C1928.49 795.098 1935.71 815.996 1935.71 843.86C1935.71 857.792 1933.82 870.09 1930.03 880.754C1926.42 891.418 1921.09 900.362 1914.04 907.586C1907.16 914.638 1898.73 919.97 1888.75 923.582C1878.95 927.194 1867.77 929 1855.21 929H1808.52ZM1838.44 904.748H1851.6C1868.8 904.748 1881.96 899.846 1891.08 890.042C1900.36 880.066 1905.01 864.672 1905.01 843.86C1905.01 823.22 1900.36 808.17 1891.08 798.71C1881.79 789.25 1868.63 784.52 1851.6 784.52H1838.44V904.748ZM1987.83 929V760.268H2089.48V785.552H2017.75V828.638H2078.38V853.922H2017.75V903.716H2092.06V929H1987.83ZM2144.71 929V760.268H2175.41L2228.05 855.212L2245.33 891.074H2246.36C2245.68 882.302 2244.82 872.928 2243.78 862.952C2242.92 852.804 2242.49 843 2242.49 833.54V760.268H2271.13V929H2240.43L2187.8 834.056L2170.51 798.194H2169.48C2170.17 807.138 2170.94 816.512 2171.8 826.316C2172.83 836.12 2173.35 845.752 2173.35 855.212V929H2144.71ZM2366.14 929V785.552H2317.38V760.268H2444.83V785.552H2396.07V929H2366.14ZM2542.64 929V760.268H2596.56C2605.33 760.268 2613.33 761.042 2620.55 762.59C2627.95 763.966 2634.31 766.288 2639.64 769.556C2645.15 772.652 2649.36 776.866 2652.29 782.198C2655.38 787.53 2656.93 794.066 2656.93 801.806C2656.93 809.89 2654.87 817.372 2650.74 824.252C2646.61 831.132 2640.85 835.862 2633.45 838.442V839.474C2642.74 841.538 2650.39 845.924 2656.41 852.632C2662.61 859.168 2665.7 868.112 2665.7 879.464C2665.7 887.892 2664.07 895.202 2660.8 901.394C2657.53 907.586 2652.97 912.746 2647.13 916.874C2641.45 921.002 2634.66 924.098 2626.74 926.162C2618.83 928.054 2610.23 929 2600.94 929H2542.64ZM2572.56 829.928H2593.98C2605.85 829.928 2614.36 827.778 2619.52 823.478C2624.85 819.178 2627.52 813.416 2627.52 806.192C2627.52 797.936 2624.77 792.088 2619.26 788.648C2613.76 785.208 2605.5 783.488 2594.49 783.488H2572.56V829.928ZM2572.56 905.78H2597.85C2610.23 905.78 2619.78 903.544 2626.49 899.072C2633.19 894.428 2636.55 887.376 2636.55 877.916C2636.55 868.972 2633.28 862.522 2626.74 858.566C2620.21 854.438 2610.58 852.374 2597.85 852.374H2572.56V905.78ZM2780.17 932.096C2769.16 932.096 2759.1 930.118 2749.99 926.162C2740.87 922.034 2733.04 916.186 2726.51 908.618C2719.97 900.878 2714.9 891.59 2711.29 880.754C2707.67 869.918 2705.87 857.62 2705.87 843.86C2705.87 830.272 2707.67 818.146 2711.29 807.482C2714.9 796.646 2719.97 787.53 2726.51 780.134C2733.04 772.738 2740.87 767.062 2749.99 763.106C2759.1 759.15 2769.16 757.172 2780.17 757.172C2791.18 757.172 2801.24 759.15 2810.36 763.106C2819.47 767.062 2827.3 772.738 2833.84 780.134C2840.54 787.53 2845.7 796.646 2849.32 807.482C2852.93 818.146 2854.73 830.272 2854.73 843.86C2854.73 857.62 2852.93 869.918 2849.32 880.754C2845.7 891.59 2840.54 900.878 2833.84 908.618C2827.3 916.186 2819.47 922.034 2810.36 926.162C2801.24 930.118 2791.18 932.096 2780.17 932.096ZM2780.17 906.038C2786.88 906.038 2792.9 904.576 2798.23 901.652C2803.56 898.728 2808.12 894.6 2811.91 889.268C2815.69 883.764 2818.61 877.228 2820.68 869.66C2822.74 861.92 2823.77 853.32 2823.77 843.86C2823.77 824.94 2819.82 810.148 2811.91 799.484C2804.17 788.648 2793.59 783.23 2780.17 783.23C2766.76 783.23 2756.09 788.648 2748.18 799.484C2740.44 810.148 2736.57 824.94 2736.57 843.86C2736.57 853.32 2737.6 861.92 2739.67 869.66C2741.73 877.228 2744.65 883.764 2748.44 889.268C2752.22 894.6 2756.78 898.728 2762.11 901.652C2767.44 904.576 2773.46 906.038 2780.17 906.038ZM2938.6 839.216L2932.67 859.856H2975.75L2969.82 839.216C2967.07 830.272 2964.4 821.07 2961.82 811.61C2959.41 802.15 2957 792.776 2954.6 783.488H2953.56C2951.16 792.948 2948.75 802.408 2946.34 811.868C2943.93 821.156 2941.35 830.272 2938.6 839.216ZM2882.1 929L2937.05 760.268H2972.14L3027.09 929H2995.62L2982.46 883.334H2925.7L2912.54 929H2882.1ZM3065.95 929V760.268H3122.97C3131.74 760.268 3139.91 761.128 3147.48 762.848C3155.05 764.568 3161.58 767.406 3167.09 771.362C3172.59 775.146 3176.89 780.22 3179.99 786.584C3183.26 792.948 3184.89 800.86 3184.89 810.32C3184.89 823.22 3181.79 833.626 3175.6 841.538C3169.58 849.45 3161.5 855.126 3151.35 858.566L3191.6 929H3158.06L3121.68 862.952H3095.88V929H3065.95ZM3095.88 839.216H3119.87C3131.4 839.216 3140.17 836.808 3146.19 831.992C3152.38 827.176 3155.48 819.952 3155.48 810.32C3155.48 800.516 3152.38 793.722 3146.19 789.938C3140.17 786.154 3131.4 784.262 3119.87 784.262H3095.88V839.216ZM3236.7 929V760.268H3281.85C3307.65 760.268 3327.77 767.234 3342.22 781.166C3356.67 795.098 3363.89 815.996 3363.89 843.86C3363.89 857.792 3362 870.09 3358.21 880.754C3354.6 891.418 3349.27 900.362 3342.22 907.586C3335.34 914.638 3326.91 919.97 3316.93 923.582C3307.13 927.194 3295.95 929 3283.39 929H3236.7ZM3266.62 904.748H3279.78C3296.98 904.748 3310.14 899.846 3319.26 890.042C3328.54 880.066 3333.19 864.672 3333.19 843.86C3333.19 823.22 3328.54 808.17 3319.26 798.71C3309.97 789.25 3296.81 784.52 3279.78 784.52H3266.62V904.748Z"/></svg>