<svg width="400" height="400" viewBox="0 0 400 400" fill="none" xmlns="http://www.w3.org/2000/svg">
<rect width="400" height="400" rx="71.5317" fill="#333333"/>
<path d="M107.466 265.718C100.664 265.718 94.5187 264.763 89.0297 262.854C83.66 260.826 79.0063 257.664 75.0685 253.368C71.25 249.072 68.2669 243.583 66.119 236.901C64.0905 230.099 63.0762 221.866 63.0762 212.2V146.511H83.839V213.811C83.839 220.135 84.3759 225.505 85.4499 229.92C86.6431 234.216 88.2541 237.676 90.2826 240.302C92.4305 242.927 94.9363 244.836 97.8002 246.029C100.664 247.103 103.886 247.64 107.466 247.64C111.045 247.64 114.327 247.103 117.31 246.029C120.293 244.836 122.859 242.927 125.007 240.302C127.154 237.676 128.825 234.216 130.018 229.92C131.212 225.505 131.808 220.135 131.808 213.811V146.511H151.676V212.2C151.676 221.866 150.662 230.099 148.633 236.901C146.605 243.583 143.621 249.072 139.684 253.368C135.865 257.664 131.212 260.826 125.723 262.854C120.353 264.763 114.267 265.718 107.466 265.718ZM204.39 265.718C196.514 265.718 188.877 264.226 181.479 261.243C174.2 258.26 167.757 254.024 162.148 248.535L174.32 234.395C178.496 238.333 183.269 241.554 188.639 244.06C194.008 246.447 199.378 247.64 204.748 247.64C211.43 247.64 216.501 246.268 219.962 243.523C223.422 240.779 225.153 237.139 225.153 232.605C225.153 230.218 224.675 228.19 223.721 226.519C222.885 224.849 221.633 223.417 219.962 222.224C218.411 220.911 216.501 219.718 214.234 218.644C212.086 217.57 209.7 216.496 207.075 215.422L190.966 208.441C188.102 207.248 185.238 205.757 182.374 203.967C179.63 202.177 177.124 200.029 174.857 197.523C172.589 195.017 170.74 192.094 169.308 188.753C167.995 185.411 167.339 181.593 167.339 177.297C167.339 172.643 168.294 168.348 170.203 164.41C172.231 160.353 174.976 156.833 178.436 153.85C181.897 150.866 186.014 148.54 190.787 146.869C195.679 145.198 200.989 144.363 206.717 144.363C213.518 144.363 220.081 145.735 226.406 148.48C232.73 151.105 238.159 154.685 242.694 159.219L232.133 172.464C228.315 169.362 224.377 166.916 220.32 165.126C216.263 163.336 211.728 162.441 206.717 162.441C201.108 162.441 196.634 163.694 193.293 166.2C189.951 168.586 188.281 171.928 188.281 176.223C188.281 178.49 188.758 180.459 189.713 182.13C190.787 183.681 192.159 185.113 193.829 186.426C195.619 187.619 197.648 188.753 199.915 189.826C202.182 190.781 204.509 191.736 206.896 192.69L222.826 199.313C226.286 200.745 229.448 202.415 232.312 204.325C235.176 206.234 237.622 208.441 239.651 210.947C241.799 213.453 243.469 216.377 244.663 219.718C245.856 222.94 246.452 226.698 246.452 230.994C246.452 235.767 245.498 240.242 243.589 244.418C241.679 248.595 238.875 252.294 235.176 255.516C231.596 258.618 227.181 261.124 221.931 263.033C216.8 264.823 210.953 265.718 204.39 265.718ZM258.789 263.57V146.511H296.198C302.283 146.511 307.832 147.048 312.844 148.122C317.975 149.077 322.39 150.687 326.089 152.955C329.907 155.103 332.831 158.026 334.859 161.725C337.007 165.424 338.081 169.959 338.081 175.328C338.081 180.937 336.649 186.127 333.785 190.9C330.922 195.673 326.924 198.955 321.793 200.745V201.461C328.237 202.893 333.547 205.936 337.723 210.589C342.019 215.124 344.167 221.329 344.167 229.204C344.167 235.051 343.033 240.123 340.766 244.418C338.499 248.714 335.337 252.294 331.279 255.158C327.342 258.022 322.628 260.169 317.139 261.601C311.65 262.914 305.684 263.57 299.24 263.57H258.789ZM279.552 194.838H294.408C302.641 194.838 308.548 193.347 312.128 190.363C315.827 187.38 317.676 183.383 317.676 178.371C317.676 172.643 315.767 168.586 311.949 166.2C308.13 163.813 302.403 162.62 294.766 162.62H279.552V194.838ZM279.552 247.461H297.092C305.684 247.461 312.307 245.91 316.96 242.807C321.614 239.586 323.941 234.693 323.941 228.13C323.941 221.925 321.674 217.451 317.139 214.706C312.605 211.842 305.923 210.41 297.092 210.41H279.552V247.461Z" fill="white"/>
<g clip-path="url(#clip0)">
<path d="M151.724 138.252H63.1917V71.6626C97.8786 66.3377 117.266 66.3739 151.724 71.6625V138.252Z" fill="#6B6A6A"/>
<rect x="71.9573" y="79.9862" width="10.2265" height="51.5427" fill="white"/>
<rect x="132.732" y="79.9862" width="10.2265" height="51.5427" fill="white"/>
<rect x="91.8259" y="88.6299" width="10.2265" height="42.8989" fill="white"/>
<rect x="112.863" y="88.6299" width="10.2265" height="42.8989" fill="white"/>
</g>
<rect x="99.4387" y="274.579" width="14.4346" height="57.4178" rx="0.96231" fill="#6B6A6A"/>
<defs>
<clipPath id="clip0">
<rect x="63.1917" y="67.6825" width="88.5325" height="70.5694" fill="white"/>
</clipPath>
</defs>
</svg>
