<svg width="1920" height="482" viewBox="0 0 1920 482" fill="none" xmlns="http://www.w3.org/2000/svg">
<path d="M720.354 0.646362L0 0.999954V481H1080.71L720.354 0.646362Z" fill="#FFCA44"/>
<path fill-rule="evenodd" clip-rule="evenodd" d="M720.354 0.646362L0 0.999954V481H1080.71L720.354 0.646362Z" fill="#FFCA44"/>
<path d="M0 0.646362V-0.353638H-1V0.646362H0ZM1920 0.646362H1921V-0.353638H1920V0.646362ZM1920 481.479V482.479H1921V481.479H1920ZM0 481.479H-1V482.479H0V481.479ZM0 1.64636H1920V-0.353638H0V1.64636ZM1919 0.646362V481.479H1921V0.646362H1919ZM1920 480.479H0V482.479H1920V480.479ZM1 481.479V0.646362H-1V481.479H1Z" fill="#FFCA44"/>
</svg>
