<svg width="274" height="79" viewBox="0 0 274 79" fill="none" xmlns="http://www.w3.org/2000/svg">
<g clip-path="url(#clip0)">
<path d="M159.151 53.3476C155.752 60.9936 150.066 65.9121 141.887 66.4411C137.227 66.7425 131.739 67.6893 127.151 65.6496C119.527 62.2598 114.456 56.3993 114.202 48.2562C114.055 43.5671 112.8 38.2594 114.849 33.6496C117.187 28.3917 122.125 24.3621 127.119 22.4736C133.564 20.036 139.873 18.2459 146.849 21.3475C152.353 23.7947 155.761 28.4608 158.892 33.086C162.769 38.8121 162.143 46.6178 159.151 53.3476Z" fill="#FFF0C0"/>
<path opacity="0.2" d="M127.151 65.6497C131.739 67.6895 137.227 66.7426 141.887 66.4412C142.254 66.4175 142.615 66.3846 142.972 66.3432C117.399 63.2931 127.312 27.0401 138.163 19.7227C134.427 19.9043 130.795 21.0834 127.119 22.4736C122.125 24.3621 117.187 28.3917 114.849 33.6496C112.799 38.2595 114.055 43.5672 114.202 48.2562C114.456 56.3995 119.527 62.2599 127.151 65.6497Z" fill="#C97B00"/>
<path d="M150.939 44.1586C150.579 43.9986 150.398 43.5855 150.532 43.2086C151.354 40.9105 153.563 38.7036 156.593 37.1532C159.522 35.6547 162.506 35.1471 164.577 35.7952C164.978 35.9206 165.201 36.3468 165.075 36.7474C164.95 37.148 164.524 37.371 164.123 37.2457C162.449 36.7218 159.829 37.2048 157.285 38.5064C154.636 39.8621 152.646 41.8113 151.964 43.7203C151.822 44.1156 151.387 44.3213 150.992 44.18C150.974 44.1735 150.956 44.1664 150.939 44.1586Z" fill="#E4BC94"/>
<path d="M156.252 38.7241C155.941 38.5858 155.755 38.2515 155.811 37.9075C155.798 37.4204 154.933 35.0234 153.404 33.6784C153.089 33.4012 153.058 32.921 153.335 32.6058C153.612 32.2908 154.092 32.2599 154.408 32.5372C156.206 34.1187 157.525 37.223 157.302 38.199C157.209 38.6082 156.802 38.8642 156.392 38.7709C156.343 38.7595 156.296 38.7438 156.252 38.7241ZM155.811 37.9224L155.812 37.9228L155.811 37.9224ZM155.82 37.8609C155.82 37.8611 155.82 37.8613 155.82 37.8615C155.82 37.8612 155.82 37.8611 155.82 37.8609Z" fill="#E4BC94"/>
<path d="M129.232 47.7153C129.051 47.6348 128.901 47.4839 128.827 47.2833C128.263 45.7499 128.399 40.8998 130.735 38.6549C131.656 37.7702 132.759 35.757 133.546 33.5261C134.357 31.2275 134.66 29.181 134.336 28.1853C134.206 27.7861 134.425 27.3574 134.824 27.2275C135.223 27.0977 135.652 27.3158 135.781 27.7151C136.399 29.6144 135.427 32.7653 134.98 34.0319C134.106 36.5069 132.884 38.6983 131.788 39.7508C129.977 41.4915 129.879 45.7395 130.254 46.7586C130.399 47.1525 130.197 47.5893 129.803 47.7341C129.61 47.8053 129.406 47.7928 129.232 47.7153Z" fill="#B59A86"/>
<path d="M130.953 39.8969C130.648 39.7614 130.458 39.435 130.51 39.0893C131.06 35.44 129.283 33.5177 128.108 32.2458C127.859 31.9761 127.643 31.7432 127.475 31.5195C127.223 31.1842 127.29 30.7078 127.625 30.4554C127.96 30.203 128.437 30.2697 128.689 30.6055C128.812 30.7679 129.003 30.9747 129.224 31.2142C130.429 32.5179 132.672 34.9445 132.014 39.3156C131.951 39.7307 131.564 40.0165 131.149 39.9541C131.08 39.9435 131.014 39.924 130.953 39.8969Z" fill="#B59A86"/>
<path d="M140.577 34.2885C140.573 34.2867 140.569 34.2849 140.564 34.283C140.181 34.1117 140.01 33.6623 140.181 33.279C140.352 32.8963 140.8 32.7245 141.183 32.8948C141.187 32.896 141.191 32.898 141.194 32.8995C142.659 33.551 144.193 33.4367 145.817 33.3161C147.421 33.1966 149.079 33.0732 150.721 33.712C151.117 33.8659 151.306 34.3047 151.154 34.6958C151.002 35.087 150.561 35.2807 150.17 35.1286C148.849 34.6146 147.431 34.7202 145.929 34.8318C144.19 34.9611 142.391 35.095 140.577 34.2885Z" fill="#B59A86"/>
<path d="M146.493 34.6475C145.221 34.0821 144.264 32.9962 143.718 31.4975C142.864 29.1503 143.188 26.3755 143.594 25.6077C143.79 25.2367 144.25 25.0968 144.621 25.2912C144.992 25.4872 145.133 25.9463 144.938 26.3173C144.763 26.6744 144.416 29.0601 145.176 31.0569C145.599 32.1695 146.283 32.9244 147.209 33.3007C147.594 33.4586 147.785 33.902 147.627 34.2909C147.469 34.6798 147.026 34.8669 146.637 34.7087C146.588 34.689 146.54 34.6687 146.493 34.6475Z" fill="#B59A86"/>
<path d="M128.341 27.8784C128.221 27.8251 128.113 27.7401 128.032 27.6256C126.368 25.2937 121.556 23.3654 119.423 23.7661C119.011 23.8437 118.614 23.5721 118.536 23.1594C118.459 22.7469 118.73 22.3497 119.143 22.2722C121.813 21.7705 127.204 23.8483 129.269 26.7427C129.513 27.0844 129.433 27.5589 129.092 27.8027C128.865 27.9648 128.579 27.9841 128.341 27.8784Z" fill="#B59A86"/>
<path d="M138.419 27.0547C138.356 27.0269 138.296 26.9901 138.241 26.9441C137.918 26.6756 137.874 26.1965 138.143 25.8739C138.759 25.1342 138.937 24.2591 138.69 23.1985C138.145 20.8644 135.724 18.5902 135.15 18.3347C134.766 18.1642 134.593 17.7151 134.764 17.3315C134.934 16.9479 135.384 16.7753 135.767 16.9458C136.747 17.3813 139.502 19.9906 140.17 22.8531C140.523 24.3661 140.226 25.7468 139.311 26.846C139.089 27.1135 138.722 27.1894 138.419 27.0547Z" fill="#E4BC94"/>
<path d="M139.233 25.0969C139.15 25.0601 139.072 25.0076 139.004 24.9395C138.707 24.6426 138.708 24.1614 139.004 23.8648C139.211 23.6587 139.538 23.4956 140.325 23.1139C141.619 22.4859 144.649 21.0153 144.632 19.7288C144.626 19.3091 144.961 18.9642 145.381 18.9585C145.801 18.9531 146.146 19.2885 146.151 19.708C146.182 21.9609 142.931 23.5387 140.988 24.4814C140.626 24.6574 140.176 24.8756 140.058 24.9603C139.83 25.1717 139.503 25.2172 139.233 25.0969ZM140.079 24.94C140.075 24.9439 140.071 24.9478 140.067 24.9516C140.071 24.9476 140.075 24.9436 140.079 24.94Z" fill="#E4BC94"/>
<path d="M149.511 29.4347C149.324 29.3517 149.172 29.1942 149.1 28.9859C148.965 28.5887 149.177 28.1566 149.574 28.0209L149.82 27.9366C152.241 27.1058 155.9 25.8498 158.566 28.4371C158.867 28.7294 158.875 29.2105 158.582 29.5117C158.29 29.8129 157.809 29.8201 157.508 29.5279C155.511 27.5905 152.629 28.5796 150.314 29.3742L150.065 29.4594C149.877 29.5239 149.68 29.5098 149.511 29.4347Z" fill="#B59A86"/>
<path d="M111.106 41.4114C111.098 41.4077 111.089 41.4037 111.081 41.3997C110.704 41.2154 110.547 40.7604 110.731 40.3832C114.417 32.8363 118.352 32.3325 122.517 31.7991C122.835 31.7584 123.156 31.7173 123.481 31.6726C123.896 31.6155 124.28 31.9061 124.337 32.3218C124.394 32.7377 124.104 33.1211 123.688 33.1784C123.359 33.2238 123.033 33.2654 122.71 33.3067C118.639 33.8281 115.423 34.2398 112.097 41.0502C111.917 41.4191 111.478 41.5768 111.106 41.4114Z" fill="#E4BC94"/>
<path d="M117.731 42.5621C117.347 42.3916 117.175 41.9425 117.345 41.5589C118.058 39.955 116.916 36.9014 116.367 35.4339C116.25 35.1208 116.157 34.8736 116.095 34.6804C116.028 34.4709 115.824 33.8331 116.381 33.4976C116.74 33.2809 117.208 33.3969 117.424 33.7562C117.505 33.8903 117.539 34.0393 117.532 34.1846C117.579 34.3362 117.69 34.6336 117.79 34.9013C118.458 36.6847 119.7 40.0046 118.734 42.1765C118.564 42.5601 118.115 42.7327 117.731 42.5621ZM117.166 34.7988C117.166 34.799 117.166 34.7992 117.165 34.7993C117.166 34.7992 117.166 34.799 117.166 34.7988ZM117.167 34.7982C117.167 34.7983 117.167 34.7984 117.167 34.7985C117.167 34.7984 117.167 34.7983 117.167 34.7982ZM117.168 34.7976C117.168 34.7976 117.168 34.7978 117.168 34.7979C117.168 34.7978 117.168 34.7976 117.168 34.7976Z" fill="#E4BC94"/>
<path d="M111.803 53.9201C111.557 53.8107 111.377 53.5737 111.353 53.2864C111.226 51.7128 113.915 47.6025 116.785 46.3291C117.169 46.1591 117.618 46.3322 117.788 46.7157C117.958 47.0994 117.785 47.5485 117.402 47.7187C116.353 48.1836 115.182 49.2261 114.189 50.5788C113.225 51.8921 112.853 52.9106 112.868 53.164C112.902 53.5824 112.591 53.9487 112.172 53.9827C112.041 53.9934 111.915 53.97 111.803 53.9201Z" fill="#B59A86"/>
<path d="M127.41 56.1066C127.311 56.0624 127.219 55.9959 127.143 55.9078C125.542 54.0459 125.031 52.2179 124.581 50.6051C123.97 48.4182 123.488 46.6905 120.601 45.1555C120.231 44.9585 120.09 44.4983 120.287 44.1277C120.484 43.7571 120.945 43.6166 121.315 43.8135C124.777 45.6544 125.422 47.9634 126.045 50.1964C126.473 51.7278 126.915 53.3113 128.296 54.9166C128.569 55.2348 128.533 55.7147 128.215 55.9883C127.985 56.1863 127.67 56.2222 127.41 56.1066Z" fill="#B59A86"/>
<path d="M131.572 54.2933C131.372 54.2047 131.212 54.0313 131.148 53.8049C130.771 52.4642 128.699 52.1255 127.035 51.8532C126.273 51.7287 125.615 51.6211 125.121 51.4249C124.73 51.2716 124.541 50.8279 124.696 50.4379C124.851 50.0479 125.293 49.8573 125.683 50.0123C126.023 50.1477 126.634 50.2476 127.28 50.3533C129.26 50.6769 131.971 51.1206 132.611 53.3926C132.725 53.7966 132.49 54.2164 132.086 54.3303C131.909 54.3801 131.728 54.3628 131.572 54.2933Z" fill="#B59A86"/>
<path d="M117.416 62.6955C117.299 62.6433 117.193 62.5608 117.112 62.4497C116.864 62.1108 116.938 61.6353 117.277 61.3877C119.365 59.862 120.43 57.7328 120.445 55.0592C120.456 52.8785 119.737 51.0972 119.595 50.8368C119.394 50.4684 119.529 50.0067 119.898 49.8056C120.266 49.6046 120.728 49.7403 120.929 50.1087C121.272 50.7374 121.977 52.7767 121.965 55.0673C121.948 58.2048 120.637 60.8147 118.174 62.6149C117.946 62.7814 117.657 62.8024 117.416 62.6955Z" fill="#E4BC94"/>
<path d="M120.832 58.4354C120.637 58.3486 120.47 58.2424 120.331 58.105C120.032 57.81 120.029 57.3288 120.324 57.0302C120.616 56.7343 121.091 56.7291 121.391 57.0153C121.553 57.1286 122.209 57.2482 122.69 57.3361C123.965 57.569 125.712 57.888 126.931 59.029C127.237 59.3158 127.253 59.7968 126.967 60.1032C126.68 60.4097 126.199 60.4258 125.893 60.1389C124.999 59.3029 123.567 59.0416 122.417 58.8314C121.767 58.7126 121.239 58.6162 120.832 58.4354ZM121.399 57.0233C121.399 57.0234 121.399 57.0235 121.399 57.0235C121.399 57.0235 121.399 57.0234 121.399 57.0233Z" fill="#E4BC94"/>
<path d="M130.025 61.2935C129.795 61.1912 129.62 60.977 129.581 60.7094C129.52 60.2942 129.807 59.9079 130.222 59.8468C131.274 59.6918 132.454 60.0225 133.82 60.4052C135.356 60.8357 137.268 61.3714 139.567 61.3596C139.986 61.3577 140.328 61.696 140.331 62.1158C140.333 62.5355 139.994 62.8776 139.574 62.8797C137.063 62.8923 135.037 62.3248 133.41 61.8688C132.161 61.5191 131.175 61.2428 130.443 61.3505C130.296 61.3724 130.152 61.35 130.025 61.2935Z" fill="#B59A86"/>
<path d="M140.803 67.9181C139.686 67.4215 138.495 66.4112 137.249 64.9007C136.09 63.4945 135.309 62.1684 135.276 62.1126C135.064 61.7504 135.185 61.2849 135.547 61.0727C135.91 60.8604 136.375 60.9821 136.587 61.3441C137.395 62.721 139.952 66.3719 142.057 66.7299C142.47 66.8004 142.749 67.1929 142.678 67.6067C142.608 68.0205 142.215 68.2987 141.801 68.2282C141.476 68.1727 141.142 68.0692 140.803 67.9181Z" fill="#B59A86"/>
<path d="M136.57 57.7188C136.437 57.6598 136.32 57.5624 136.237 57.4305C136.012 57.0756 136.118 56.6062 136.473 56.3821C139.963 54.1775 145.015 55.3911 149.497 56.8692C149.895 57.0001 150.112 57.4303 149.981 57.829C149.849 58.2275 149.42 58.4441 149.021 58.3127C144.876 56.9458 140.24 55.8002 137.285 57.6671C137.062 57.808 136.794 57.8185 136.57 57.7188Z" fill="#E4BC94"/>
<path d="M147.74 64.0478C147.07 63.7497 146.459 63.3537 145.903 62.859C143.988 61.1541 143.092 58.575 142.467 56.277C142.357 55.872 142.596 55.4544 143.001 55.3443C143.406 55.2342 143.824 55.4734 143.934 55.8784C144.5 57.9608 145.296 60.2836 146.914 61.7238C148.577 63.204 150.953 63.571 154.18 62.8465C154.59 62.7545 154.996 63.0119 155.088 63.4215C155.18 63.831 154.923 64.2375 154.513 64.3295C151.785 64.942 149.549 64.8517 147.74 64.0478Z" fill="#E4BC94"/>
<path d="M154.098 55.0512C154.046 55.0281 153.996 54.9988 153.948 54.9629C153.614 54.71 153.547 54.2335 153.8 53.8985C154.852 52.5041 156.387 51.649 157.871 50.8219C159.591 49.8637 161.215 48.9586 161.682 47.3619C161.8 46.9592 162.222 46.728 162.625 46.8459C163.027 46.9632 163.259 47.3858 163.141 47.7887C162.499 49.9832 160.522 51.0845 158.611 52.1497C157.265 52.9001 155.872 53.6759 155.013 54.8144C154.796 55.1019 154.414 55.1916 154.098 55.0512Z" fill="#B59A86"/>
<path d="M156.877 52.7795C156.537 52.6285 156.359 52.2542 156.45 51.8986C156.442 51.6968 156.289 51.1107 156.165 50.6357C155.601 48.4798 154.657 44.8715 156.72 42.787C157.015 42.4886 157.497 42.4859 157.795 42.7814C158.093 43.0766 158.096 43.5578 157.8 43.8561C156.347 45.325 157.153 48.4087 157.635 50.2512C157.924 51.355 158.068 51.9092 157.895 52.3584C157.745 52.7502 157.305 52.9453 156.913 52.7946C156.901 52.7898 156.889 52.7848 156.877 52.7795ZM156.477 51.8121C156.477 51.8124 156.477 51.8127 156.477 51.8129C156.477 51.8127 156.477 51.8124 156.477 51.8121Z" fill="#B59A86"/>
<path d="M152.442 59.5093C152.312 59.4517 152.198 59.3574 152.115 59.2301C151.885 58.8786 151.985 58.4072 152.336 58.1778C153.348 57.5176 158.139 56.8441 158.979 56.7476C159.396 56.6998 159.772 56.999 159.82 57.4159C159.868 57.8329 159.569 58.2098 159.152 58.2578C156.684 58.5413 153.589 59.1914 153.166 59.4517C152.942 59.5978 152.669 59.6104 152.442 59.5093Z" fill="#B59A86"/>
<path d="M131.889 24.7225C131.855 24.7074 131.822 24.6898 131.79 24.6692C131.211 24.3015 130.552 23.537 130.112 22.7216C129.509 21.6035 129.357 20.5088 129.671 19.556C129.802 19.1573 130.232 18.9408 130.63 19.0722C131.029 19.204 131.246 19.6333 131.114 20.032C130.706 21.2708 131.949 22.9698 132.605 23.3861C132.959 23.6111 133.064 24.0808 132.839 24.4351C132.634 24.757 132.228 24.8729 131.889 24.7225Z" fill="#E4BC94"/>
<path d="M122.172 39.9837C122.086 39.9455 122.006 39.8907 121.936 39.8192C121.643 39.5185 121.65 39.0374 121.951 38.7446C122.493 38.2162 124.911 37.3129 125.989 37.4496C126.406 37.5023 126.701 37.8826 126.648 38.299C126.595 38.7154 126.215 39.0101 125.798 38.9574C125.237 38.8862 123.366 39.5506 123.003 39.8417C122.774 40.0582 122.444 40.1048 122.172 39.9837ZM123.011 39.8338C123.009 39.8351 123.008 39.8361 123.007 39.8373C123.008 39.8362 123.009 39.835 123.011 39.8338Z" fill="#B59A86"/>
<path d="M121.751 29.5879C121.568 29.5068 121.418 29.3545 121.345 29.1519C121.202 28.7572 121.407 28.3215 121.801 28.1788C122.912 27.7771 124.326 28.1149 125.092 28.6364C125.439 28.8726 125.528 29.3454 125.292 29.6923C125.056 30.0393 124.583 30.1282 124.236 29.8928C123.793 29.5907 122.895 29.3995 122.318 29.6082C122.126 29.6776 121.924 29.6649 121.751 29.5879Z" fill="#E4BC94"/>
<path d="M136.422 51.7493C136.258 51.6766 136.12 51.5462 136.039 51.3707C135.045 49.193 135.21 47.4305 135.343 46.0144C135.482 44.5344 135.583 43.4651 134.525 42.2213C134.253 41.9016 134.292 41.422 134.612 41.15C134.931 40.8781 135.411 40.9168 135.683 41.2366C137.156 42.9688 137.004 44.5893 136.857 46.1564C136.729 47.5203 136.596 48.9307 137.422 50.7391C137.596 51.1209 137.428 51.5718 137.046 51.7461C136.84 51.8405 136.614 51.8346 136.422 51.7493Z" fill="#E4BC94"/>
<path d="M136.947 47.3962C136.295 47.1064 135.787 46.7676 135.516 46.4239C135.256 46.0944 135.312 45.6164 135.641 45.3565C135.971 45.0966 136.449 45.1529 136.709 45.4824C136.878 45.6969 137.777 46.2204 139.181 46.5156C139.591 46.6019 139.855 47.005 139.768 47.4158C139.682 47.8266 139.279 48.0895 138.868 48.0031C138.162 47.8547 137.502 47.6432 136.947 47.3962Z" fill="#E4BC94"/>
<path d="M151.402 51.476C151.369 51.4614 151.337 51.4444 151.306 51.4249C150.95 51.2018 150.843 50.7327 151.066 50.3772C151.401 49.8438 150.886 48.8863 150.691 48.6611C150.398 48.4649 150.273 48.0843 150.411 47.7447C150.568 47.3556 151.011 47.1681 151.4 47.3256C151.408 47.3287 151.415 47.3318 151.423 47.335C151.922 47.557 152.355 48.4149 152.526 48.9452C152.801 49.793 152.741 50.5676 152.353 51.1849C152.15 51.5093 151.742 51.6271 151.402 51.476ZM150.83 48.7344C150.829 48.7343 150.829 48.7342 150.829 48.7341C150.829 48.7342 150.829 48.7343 150.83 48.7344Z" fill="#E4BC94"/>
<path d="M139.385 49.6955C139.208 49.6165 139.06 49.4697 138.985 49.2739L137.646 45.7912C137.495 45.3993 137.691 44.9596 138.082 44.8091C138.474 44.6584 138.914 44.854 139.064 45.2456L140.403 48.7284C140.554 49.1202 140.359 49.5599 139.967 49.7104C139.771 49.7858 139.563 49.7745 139.385 49.6955Z" fill="#E4BC94"/>
<path d="M149.605 5.64823H164.046C165.466 5.64823 166.621 4.49354 166.621 3.07417C166.621 1.6548 165.466 0.5 164.046 0.5H161.281C160.817 0.5 160.44 0.876486 160.44 1.34112C160.44 1.80576 160.817 2.18224 161.281 2.18224H164.046C164.538 2.18224 164.938 2.58228 164.938 3.07417C164.938 3.56595 164.538 3.96598 164.046 3.96598H149.605C149.14 3.96598 148.763 4.34247 148.763 4.80711C148.763 5.27174 149.14 5.64823 149.605 5.64823Z" fill="#C3C4CB"/>
<path d="M164.046 6.6232H149.605C149.14 6.6232 148.763 6.99969 148.763 7.46432C148.763 7.92896 149.14 8.30544 149.605 8.30544H164.046C164.538 8.30544 164.938 8.70548 164.938 9.19737C164.938 9.68914 164.538 10.0892 164.046 10.0892H161.281C160.817 10.0892 160.44 10.4657 160.44 10.9303C160.44 11.3949 160.817 11.7714 161.281 11.7714H164.046C165.466 11.7714 166.621 10.6167 166.621 9.19737C166.621 7.778 165.466 6.6232 164.046 6.6232Z" fill="#C3C4CB"/>
<path d="M102.841 16.8019H111.605C113.024 16.8019 114.179 15.6471 114.179 14.2277C114.179 12.8083 113.024 11.6537 111.605 11.6537H108.84C108.375 11.6537 107.999 12.0301 107.999 12.4948C107.999 12.9594 108.375 13.3359 108.84 13.3359H111.605C112.097 13.3359 112.497 13.7359 112.497 14.2277C112.497 14.7196 112.097 15.1196 111.605 15.1196H102.841C102.377 15.1196 102 15.4961 102 15.9608C102 16.4254 102.377 16.8019 102.841 16.8019Z" fill="#C3C4CB"/>
<path d="M111.605 17.7769H102.841C102.377 17.7769 102 18.1534 102 18.618C102 19.0826 102.377 19.4591 102.841 19.4591H111.605C112.097 19.4591 112.497 19.8592 112.497 20.3509C112.497 20.8428 112.097 21.2429 111.605 21.2429H108.84C108.375 21.2429 107.999 21.6193 107.999 22.084C107.999 22.5486 108.375 22.9251 108.84 22.9251H111.605C113.024 22.9251 114.179 21.7703 114.179 20.3509C114.179 18.9316 113.024 17.7769 111.605 17.7769Z" fill="#C3C4CB"/>
</g>
<path d="M0 78.5L3.98545 77.5733C7.97091 76.6467 16.9382 74.7933 24.9091 74.33C32.88 74.0983 41.8473 75.2566 49.8182 73.635C57.7891 72.2449 65.76 67.8432 74.7273 65.5266C82.6982 63.2099 90.6691 63.2099 99.6364 63.9049C107.607 64.5999 115.578 65.7582 124.545 68.0749C132.516 70.1599 140.487 73.4033 148.458 73.8666C157.425 74.0983 165.396 71.5499 173.367 70.6233C182.335 69.6966 190.305 70.1599 198.276 71.3183C207.244 72.2449 215.215 73.4033 223.185 72.4766C231.156 71.5499 240.124 68.3066 248.095 68.7699C256.065 69.0016 265.033 72.7083 269.018 74.7933C269.018 74.7933 272.5 77 273 77.5C273.5 78 274 78.5 274 78.5H273.004H269.018H248.095H223.185H198.276H173.367H148.458H124.545H99.6364H74.7273H49.8182H24.9091H3.98545H0Z" fill="#FFF0C0"/>
<defs>
<clipPath id="clip0">
<rect width="64.8" height="72" fill="white" transform="translate(102 0.5)"/>
</clipPath>
</defs>
</svg>
