<svg width="79" height="68" viewBox="0 0 79 68" fill="none" xmlns="http://www.w3.org/2000/svg">
<g clip-path="url(#clip0)">
<path d="M29.6828 61.7078L24.5848 64.085C23.8804 64.4135 23.0445 64.1092 22.716 63.4048L16.773 50.6598C16.4445 49.9554 16.7487 49.1195 17.4531 48.791L25.1001 45.2252C25.4822 45.047 25.9232 45.0504 26.3035 45.2322C26.6826 45.4146 26.9607 45.7577 27.0607 46.1671L30.4547 60.1007C30.6127 60.7513 30.2901 61.4245 29.6828 61.7078Z" fill="#333333"/>
<path d="M21.4002 31.4343L28.6986 37.5346L28.5318 46.7282L16.0928 52.5286C13.977 53.5152 11.4729 52.6036 10.4864 50.4881L6.92052 42.8411C5.93394 40.7253 6.84534 38.2213 8.96109 37.2347L21.4002 31.4343Z" fill="#333333"/>
<path d="M53.309 32.0712L48.211 34.4484C47.5065 34.7769 46.6707 34.4727 46.3422 33.7682L42.7763 26.1213C42.4478 25.4168 42.7521 24.581 43.4565 24.2525L48.5545 21.8752C49.259 21.5467 50.0948 21.851 50.4233 22.5554L53.9891 30.2024C54.3176 30.9069 54.0134 31.7427 53.309 32.0712Z" fill="#333333"/>
<path d="M39.3822 12.1877L54.8342 45.3246C55.0363 45.7578 54.9969 46.2727 54.7336 46.7059C54.589 46.9285 54.3835 47.0864 54.154 47.1934C53.95 47.2885 53.7478 47.3207 53.5339 47.3274L28.5318 46.7282L21.4002 31.4343L37.0122 11.8964C37.3112 11.5398 37.7701 11.3258 38.2594 11.377C38.7605 11.4535 39.1801 11.7542 39.3822 12.1877Z" fill="#333333"/>
<line x1="57.6043" y1="23.7579" x2="68.48" y2="18.6865" stroke="#333333" stroke-width="3"/>
<line x1="53.6528" y1="17.7937" x2="57.7571" y2="6.51739" stroke="#333333" stroke-width="3"/>
<line x1="60.1125" y1="31.3594" x2="71.3888" y2="35.4637" stroke="#333333" stroke-width="3"/>
</g>
<defs>
<clipPath id="clip0">
<rect width="66" height="44" fill="white" transform="translate(0 28) rotate(-25)"/>
</clipPath>
</defs>
</svg>
