<svg width="20" height="20" viewBox="0 0 20 20" fill="none" xmlns="http://www.w3.org/2000/svg">
<path fill-rule="evenodd" clip-rule="evenodd" d="M14.3257 12.8985L19.7057 18.2785C19.8948 18.4678 20.001 18.7244 20.0009 18.9919C20.0008 19.2594 19.8945 19.5159 19.7052 19.705C19.516 19.8941 19.2594 20.0003 18.9919 20.0002C18.7244 20.0001 18.4678 19.8938 18.2787 19.7045L12.8987 14.3245C11.2905 15.5702 9.26802 16.1564 7.24287 15.9639C5.21772 15.7714 3.34198 14.8146 1.99723 13.2881C0.652477 11.7617 -0.0602651 9.78034 0.00399633 7.74708C0.0682577 5.71381 0.904695 3.78139 2.34315 2.34294C3.7816 0.904481 5.71402 0.0680441 7.74729 0.0037827C9.78056 -0.0604787 11.7619 0.652263 13.2884 1.99701C14.8148 3.34176 15.7716 5.21751 15.9641 7.24266C16.1566 9.26781 15.5704 11.2902 14.3247 12.8985H14.3257ZM8.00074 13.9995C9.59204 13.9995 11.1182 13.3674 12.2434 12.2422C13.3686 11.117 14.0007 9.59083 14.0007 7.99953C14.0007 6.40823 13.3686 4.88211 12.2434 3.75689C11.1182 2.63167 9.59204 1.99953 8.00074 1.99953C6.40944 1.99953 4.88332 2.63167 3.7581 3.75689C2.63289 4.88211 2.00074 6.40823 2.00074 7.99953C2.00074 9.59083 2.63289 11.117 3.7581 12.2422C4.88332 13.3674 6.40944 13.9995 8.00074 13.9995V13.9995Z" fill="#6B6A6A"/>
</svg>
