<svg xmlns="http://www.w3.org/2000/svg" width="1247" height="1247" fill="none" viewBox="0 0 1247 1247"><path fill="#333" d="M335.32 828.696C314.116 828.696 294.958 825.72 277.846 819.768C261.106 813.444 246.598 803.586 234.322 790.194C222.418 776.802 213.118 759.69 206.422 738.858C200.098 717.654 196.936 691.986 196.936 661.854V457.068H261.664V666.876C261.664 686.592 263.338 703.332 266.686 717.096C270.406 730.488 275.428 741.276 281.752 749.46C288.448 757.644 296.26 763.596 305.188 767.316C314.116 770.664 324.16 772.338 335.32 772.338C346.48 772.338 356.71 770.664 366.01 767.316C375.31 763.596 383.308 757.644 390.004 749.46C396.7 741.276 401.908 730.488 405.628 717.096C409.348 703.332 411.208 686.592 411.208 666.876V457.068H473.147V661.854C473.147 691.986 469.985 717.654 463.66 738.858C457.336 759.69 448.036 776.802 435.76 790.194C423.856 803.586 409.348 813.444 392.236 819.768C375.496 825.72 356.524 828.696 335.32 828.696ZM637.482 828.696C612.93 828.696 589.122 824.046 566.058 814.746C543.366 805.446 523.278 792.24 505.794 775.128L543.738 731.046C556.758 743.322 571.638 753.366 588.378 761.178C605.118 768.618 621.858 772.338 638.598 772.338C659.43 772.338 675.24 768.06 686.028 759.504C696.816 750.948 702.21 739.602 702.21 725.466C702.21 718.026 700.722 711.702 697.746 706.494C695.142 701.286 691.236 696.822 686.028 693.102C681.192 689.01 675.24 685.29 668.172 681.942C661.476 678.594 654.036 675.246 645.852 671.898L595.632 650.136C586.704 646.416 577.776 641.766 568.848 636.186C560.292 630.606 552.48 623.91 545.412 616.098C538.344 608.286 532.578 599.172 528.114 588.756C524.022 578.34 521.976 566.436 521.976 553.044C521.976 538.536 524.952 525.144 530.904 512.868C537.228 500.22 545.784 489.246 556.572 479.946C567.36 470.646 580.194 463.392 595.074 458.184C610.326 452.976 626.88 450.372 644.736 450.372C665.94 450.372 686.4 454.65 706.116 463.206C725.832 471.39 742.758 482.55 756.894 496.686L723.972 537.978C712.068 528.306 699.792 520.68 687.144 515.1C674.496 509.52 660.36 506.73 644.736 506.73C627.252 506.73 613.302 510.636 602.886 518.448C592.47 525.888 587.262 536.304 587.262 549.696C587.262 556.764 588.75 562.902 591.726 568.11C595.074 572.946 599.352 577.41 604.56 581.502C610.14 585.222 616.464 588.756 623.532 592.104C630.6 595.08 637.854 598.056 645.294 601.032L694.956 621.678C705.744 626.142 715.602 631.35 724.53 637.302C733.458 643.254 741.084 650.136 747.408 657.948C754.104 665.76 759.312 674.874 763.032 685.29C766.752 695.334 768.612 707.052 768.612 720.444C768.612 735.324 765.636 749.274 759.684 762.294C753.732 775.314 744.99 786.846 733.458 796.89C722.298 806.562 708.534 814.374 692.166 820.326C676.17 825.906 657.942 828.696 637.482 828.696ZM807.07 822V457.068H923.692C942.664 457.068 959.962 458.742 975.586 462.09C991.582 465.066 1005.35 470.088 1016.88 477.156C1028.78 483.852 1037.9 492.966 1044.22 504.498C1050.92 516.03 1054.26 530.166 1054.26 546.906C1054.26 564.39 1049.8 580.572 1040.87 595.452C1031.94 610.332 1019.48 620.562 1003.49 626.142V628.374C1023.57 632.838 1040.13 642.324 1053.15 656.832C1066.54 670.968 1073.24 690.312 1073.24 714.864C1073.24 733.092 1069.7 748.902 1062.63 762.294C1055.57 775.686 1045.71 786.846 1033.06 795.774C1020.78 804.702 1006.09 811.398 988.978 815.862C971.866 819.954 953.266 822 933.178 822H807.07ZM871.798 607.728H918.112C943.78 607.728 962.194 603.078 973.354 593.778C984.886 584.478 990.652 572.016 990.652 556.392C990.652 538.536 984.7 525.888 972.796 518.448C960.892 511.008 943.036 507.288 919.228 507.288H871.798V607.728ZM871.798 771.78H926.482C953.266 771.78 973.912 766.944 988.42 757.272C1002.93 747.228 1010.18 731.976 1010.18 711.516C1010.18 692.172 1003.11 678.222 988.978 669.666C974.842 660.738 954.01 656.274 926.482 656.274H871.798V771.78Z"/><path fill="#333" d="M473 431L197 431V223.408C305.136 206.808 365.577 206.921 473 223.408V431Z"/><rect width="31.881" height="160.684" x="224.327" y="249.357" fill="#fff"/><rect width="31.881" height="160.684" x="413.792" y="249.357" fill="#fff"/><rect width="31.881" height="133.737" x="286.267" y="276.304" fill="#fff"/><rect width="31.881" height="133.737" x="351.852" y="276.304" fill="#fff"/><rect width="45" height="179" x="310" y="856" fill="#333" rx="3"/></svg>