<svg width="48" height="49" viewBox="0 0 48 49" fill="none" xmlns="http://www.w3.org/2000/svg">
<rect y="0.460663" width="48" height="48.5393" rx="7.5" fill="#FF5722"/>
<path d="M37.9874 20.647C36.8504 20.647 35.8499 21.1309 35.1134 21.8847C32.4059 19.9614 28.7549 18.7236 24.7094 18.5916L26.8109 8.87468L33.5024 10.4158C33.5024 12.0965 34.8374 13.4692 36.4754 13.4692C38.1449 13.4692 39.4874 12.0601 39.4874 10.3779C39.4874 8.69569 38.1539 7.28653 36.4769 7.28653C35.3084 7.28653 34.3004 8.01007 33.7979 8.99906L26.4074 7.31838C26.0354 7.21675 25.6709 7.48979 25.5719 7.87204L23.2649 18.5841C19.2509 18.7555 15.6389 19.9917 12.9224 21.9166C12.1859 21.1309 11.1464 20.647 10.0094 20.647C5.79144 20.647 4.40994 26.455 8.27244 28.4406C8.13594 29.0549 8.07444 29.7102 8.07444 30.3639C8.07444 36.8879 15.2369 42.1742 24.0314 42.1742C32.8634 42.1742 40.0259 36.8879 40.0259 30.3639C40.0259 29.7102 39.9584 29.0246 39.7919 28.4087C43.5764 26.4156 42.1829 20.65 37.9874 20.647ZM14.4014 28.8532C14.4014 27.1406 15.7364 25.7618 17.4134 25.7618C19.0514 25.7618 20.3879 27.1315 20.3879 28.8532C20.3879 30.5354 19.0529 31.9066 17.4134 31.9066C15.7439 31.9142 14.4014 30.5354 14.4014 28.8532ZM30.6599 36.131C27.8984 38.9645 20.1059 38.9645 17.3429 36.131C17.0384 35.858 17.0384 35.3756 17.3429 35.0647C17.6084 34.7916 18.0794 34.7916 18.3449 35.0647C20.4539 37.2838 27.4499 37.3218 29.6504 35.0647C29.9159 34.7916 30.3869 34.7916 30.6524 35.0647C30.9629 35.3771 30.9629 35.8595 30.6599 36.131ZM30.5984 31.9127C28.9604 31.9127 27.6254 30.5429 27.6254 28.8623C27.6254 27.1497 28.9604 25.7709 30.5984 25.7709C32.2679 25.7709 33.6104 27.1406 33.6104 28.8623C33.6029 30.5354 32.2679 31.9127 30.5984 31.9127Z" fill="white"/>
</svg>
