<svg width="48" height="49" viewBox="0 0 48 49" fill="none" xmlns="http://www.w3.org/2000/svg">
<rect y="1" width="48" height="48" rx="7.5" fill="#FF5722"/>
<path d="M37.9874 20.956C36.8504 20.956 35.8499 21.4399 35.1134 22.1938C32.4059 20.2704 28.7549 19.0326 24.7094 18.9007L26.8109 9.1837L33.5024 10.7248C33.5024 12.4055 34.8374 13.7782 36.4754 13.7782C38.1449 13.7782 39.4874 12.3691 39.4874 10.6869C39.4874 9.00471 38.1539 7.59555 36.4769 7.59555C35.3084 7.59555 34.3004 8.31909 33.7979 9.30808L26.4074 7.6274C26.0354 7.52578 25.6709 7.79881 25.5719 8.18106L23.2649 18.8931C19.2509 19.0645 15.6389 20.3007 12.9224 22.2256C12.1859 21.4399 11.1464 20.956 10.0094 20.956C5.79144 20.956 4.40994 26.764 8.27244 28.7496C8.13594 29.3639 8.07444 30.0192 8.07444 30.673C8.07444 37.197 15.2369 42.4832 24.0314 42.4832C32.8634 42.4832 40.0259 37.197 40.0259 30.673C40.0259 30.0192 39.9584 29.3336 39.7919 28.7177C43.5764 26.7246 42.1829 20.959 37.9874 20.956ZM14.4014 29.1622C14.4014 27.4497 15.7364 26.0708 17.4134 26.0708C19.0514 26.0708 20.3879 27.4406 20.3879 29.1622C20.3879 30.8444 19.0529 32.2156 17.4134 32.2156C15.7439 32.2232 14.4014 30.8444 14.4014 29.1622ZM30.6599 36.44C27.8984 39.2735 20.1059 39.2735 17.3429 36.44C17.0384 36.167 17.0384 35.6847 17.3429 35.3737C17.6084 35.1007 18.0794 35.1007 18.3449 35.3737C20.4539 37.5929 27.4499 37.6308 29.6504 35.3737C29.9159 35.1007 30.3869 35.1007 30.6524 35.3737C30.9629 35.6862 30.9629 36.1685 30.6599 36.44ZM30.5984 32.2217C28.9604 32.2217 27.6254 30.852 27.6254 29.1713C27.6254 27.4588 28.9604 26.0799 30.5984 26.0799C32.2679 26.0799 33.6104 27.4497 33.6104 29.1713C33.6029 30.8444 32.2679 32.2217 30.5984 32.2217Z" fill="white"/>
</svg>
