<svg width="48" height="49" viewBox="0 0 48 49" fill="none" xmlns="http://www.w3.org/2000/svg">
<rect y="0.460693" width="48" height="48.5393" rx="5.625" fill="#55ACEE"/>
<path d="M38.328 18.6614C38.328 18.3323 38.316 18.0122 38.301 17.6967C39.765 16.6455 40.9965 15.3335 42 13.8227V13.8212C40.6605 14.4142 39.2355 14.8086 37.7475 14.9997C39.2775 14.076 40.446 12.6244 40.995 10.8754C39.5685 11.7355 37.9935 12.3422 36.315 12.682C34.9605 11.2228 33.03 10.3203 30.924 10.3203C26.838 10.3203 23.5485 13.674 23.5485 17.7847C23.5485 18.3763 23.598 18.9451 23.7195 19.4866C17.5845 19.1832 12.1545 16.2102 8.5065 11.6794C7.8705 12.7973 7.4955 14.076 7.4955 15.4518C7.4955 18.0365 8.811 20.3269 10.7745 21.6542C9.588 21.6314 8.4255 21.2826 7.44 20.735V20.8169C7.44 24.4437 9.9975 27.4562 13.353 28.1509C12.225 28.4633 10.836 28.4512 10.0215 28.2692C10.977 31.224 13.692 33.3977 16.917 33.469C14.406 35.4545 11.217 36.6513 7.7655 36.6513C7.161 36.6513 6.5805 36.624 6 36.5497C9.27 38.6809 13.143 39.8989 17.322 39.8989C30.903 39.8989 38.328 28.5225 38.328 18.6614V18.6614Z" fill="white"/>
</svg>
