<svg width="48" height="49" viewBox="0 0 48 49" fill="none" xmlns="http://www.w3.org/2000/svg">
<rect y="1" width="48" height="48" rx="7.5" fill="#60B7FF"/>
<path d="M38.328 18.9704C38.328 18.6413 38.316 18.3212 38.301 18.0057C39.765 16.9545 40.9965 15.6424 42 14.1317V14.1301C40.6605 14.7232 39.2355 15.1176 37.7475 15.3087C39.2775 14.385 40.446 12.9333 40.995 11.1844C39.5685 12.0445 37.9935 12.6512 36.315 12.991C34.9605 11.5318 33.03 10.6292 30.924 10.6292C26.838 10.6292 23.5485 13.983 23.5485 18.0937C23.5485 18.6853 23.598 19.2541 23.7195 19.7956C17.5845 19.4922 12.1545 16.5192 8.5065 11.9883C7.8705 13.1063 7.4955 14.385 7.4955 15.7608C7.4955 18.3455 8.811 20.6359 10.7745 21.9632C9.588 21.9404 8.4255 21.5915 7.44 21.044V21.1259C7.44 24.7527 9.9975 27.7651 13.353 28.4599C12.225 28.7723 10.836 28.7602 10.0215 28.5782C10.977 31.533 13.692 33.7067 16.917 33.7779C14.406 35.7635 11.217 36.9603 7.7655 36.9603C7.161 36.9603 6.5805 36.933 6 36.8587C9.27 38.9899 13.143 40.2079 17.322 40.2079C30.903 40.2079 38.328 28.8315 38.328 18.9704V18.9704Z" fill="white"/>
</svg>
