<svg xmlns="http://www.w3.org/2000/svg" xmlns:svg="http://www.w3.org/2000/svg" id="svg18" width="3167.884" height="824" version="1.1" viewBox="0 0 3167.884 824" style="fill:none"><metadata id="metadata24"/><path id="path2" d="m 138.384,617.69566 c -21.204,0 -40.362,-2.976 -57.474,-8.928 -16.74,-6.324 -31.248,-16.182 -43.524,-29.574 -11.904,-13.392 -21.204,-30.504 -27.9,-51.336 C 3.162,506.65366 0,480.98566 0,450.85366 v -204.786 h 64.728 v 209.808 c 0,19.716 1.674,36.456 5.022,50.22 3.72,13.392 8.742,24.18 15.066,32.364 6.696,8.184 14.508,14.136 23.436,17.856 8.928,3.348 18.972,5.022 30.132,5.022 11.16,0 21.39,-1.674 30.69,-5.022 9.3,-3.72 17.298,-9.672 23.994,-17.856 6.696,-8.184 11.904,-18.972 15.624,-32.364 3.72,-13.764 5.58,-30.504 5.58,-50.22 v -209.808 h 61.939 v 204.786 c 0,30.132 -3.162,55.8 -9.487,77.004 -6.324,20.832 -15.624,37.944 -27.9,51.336 -11.904,13.392 -26.412,23.25 -43.524,29.574 -16.74,5.952 -35.712,8.928 -56.916,8.928 z m 302.162,0 c -24.552,0 -48.36,-4.65 -71.424,-13.95 -22.692,-9.3 -42.78,-22.506 -60.264,-39.618 l 37.944,-44.082 c 13.02,12.276 27.9,22.32 44.64,30.132 16.74,7.44 33.48,11.16 50.22,11.16 20.832,0 36.642,-4.278 47.43,-12.834 10.788,-8.556 16.182,-19.902 16.182,-34.038 0,-7.44 -1.488,-13.764 -4.464,-18.972 -2.604,-5.208 -6.51,-9.672 -11.718,-13.392 -4.836,-4.092 -10.788,-7.812 -17.856,-11.16 -6.696,-3.348 -14.136,-6.696 -22.32,-10.044 l -50.22,-21.762 c -8.928,-3.72 -17.856,-8.37 -26.784,-13.95 -8.556,-5.58 -16.368,-12.276 -23.436,-20.088 -7.068,-7.812 -12.834,-16.926 -17.298,-27.342 -4.092,-10.416 -6.138,-22.32 -6.138,-35.712 0,-14.508 2.976,-27.9 8.928,-40.176 6.324,-12.648 14.88,-23.622 25.668,-32.922 10.788,-9.3 23.622,-16.554 38.502,-21.762 15.252,-5.208 31.806,-7.812 49.662,-7.812 21.204,0 41.664,4.278 61.38,12.834 19.716,8.184 36.642,19.344 50.778,33.48 l -32.922,41.292 c -11.904,-9.672 -24.18,-17.298 -36.828,-22.878 -12.648,-5.58 -26.784,-8.37 -42.408,-8.37 -17.484,0 -31.434,3.906 -41.85,11.718 -10.416,7.44 -15.624,17.856 -15.624,31.248 0,7.068 1.488,13.206 4.464,18.414 3.348,4.836 7.626,9.3 12.834,13.392 5.58,3.72 11.904,7.254 18.972,10.602 7.068,2.976 14.322,5.952 21.762,8.928 l 49.662,20.646 c 10.788,4.464 20.646,9.672 29.574,15.624 8.928,5.952 16.554,12.834 22.878,20.646 6.696,7.812 11.904,16.926 15.624,27.342 3.72,10.044 5.58,21.762 5.58,35.154 0,14.88 -2.976,28.83 -8.928,41.85 -5.952,13.02 -14.694,24.552 -26.226,34.596 -11.16,9.672 -24.924,17.484 -41.292,23.436 -15.996,5.58 -34.224,8.37 -54.684,8.37 z m 169.588,-6.696 v -364.932 h 116.622 c 18.972,0 36.27,1.674 51.894,5.022 15.996,2.976 29.764,7.998 41.294,15.066 11.9,6.696 21.02,15.81 27.34,27.342 6.7,11.532 10.04,25.668 10.04,42.408 0,17.484 -4.46,33.666 -13.39,48.546 -8.93,14.88 -21.39,25.11 -37.38,30.69 v 2.232 c 20.08,4.464 36.64,13.95 49.66,28.458 13.39,14.136 20.09,33.48 20.09,58.032 0,18.228 -3.54,34.038 -10.61,47.43 -7.06,13.392 -16.92,24.552 -29.57,33.48 -12.28,8.928 -26.97,15.624 -44.082,20.088 -17.112,4.092 -35.712,6.138 -55.8,6.138 z m 64.728,-214.272 h 46.314 c 25.668,0 44.082,-4.65 55.242,-13.95 11.532,-9.3 17.298,-21.762 17.298,-37.386 0,-17.856 -5.952,-30.504 -17.856,-37.944 -11.904,-7.44 -29.76,-11.16 -53.568,-11.16 h -47.43 z m 0,164.052 h 54.684 c 26.784,0 47.43,-4.836 61.938,-14.508 14.51,-10.044 21.76,-25.296 21.76,-45.756 0,-19.344 -7.07,-33.294 -21.202,-41.85 -14.136,-8.928 -34.968,-13.392 -62.496,-13.392 h -54.684 z" style="fill:#333"/><path id="path4" d="m 276.064,219.99966 h -276 V 12.407661 c 108.136,-16.5999998 168.577,-16.4869998 276,0 z" style="fill:#6b6a6a"/><rect id="rect6" width="31.881" height="160.684" x="27.391" y="38.357" style="fill:#fff"/><rect id="rect8" width="31.881" height="160.684" x="216.856" y="38.357" style="fill:#fff"/><rect id="rect10" width="31.881" height="133.737" x="89.331" y="65.304" style="fill:#fff"/><rect id="rect12" width="31.881" height="133.737" x="154.916" y="65.304" style="fill:#fff"/><rect id="rect14" width="45" height="179" x="113.064" y="645" rx="3" style="fill:#6b6a6a"/><path id="path16" d="m 1173.644,280.90266 c -10,0 -19.35,-1.774 -28.06,-5.322 -8.71,-3.548 -16.29,-8.789 -22.74,-15.723 -6.29,-6.934 -11.29,-15.481 -14.99,-25.641 -3.71,-10.159 -5.57,-21.77 -5.57,-34.832 0,-12.901 1.86,-24.432 5.57,-34.591 3.87,-10.321 9.03,-19.029 15.48,-26.125 6.61,-7.095 14.27,-12.498 22.98,-16.207 8.87,-3.709 18.3,-5.563 28.3,-5.563 10,0 18.87,2.016 26.61,6.047 7.74,4.032 14.11,8.708 19.11,14.03 l -15,18.142 c -4.19,-4.193 -8.71,-7.499 -13.55,-9.918 -4.84,-2.58 -10.32,-3.87 -16.45,-3.87 -6.45,0 -12.41,1.371 -17.9,4.112 -5.32,2.581 -9.99,6.37 -14.03,11.369 -3.87,4.838 -6.93,10.805 -9.19,17.9 -2.09,7.096 -3.14,15.078 -3.14,23.948 0,18.061 3.87,32.252 11.61,42.573 7.9,10.16 18.54,15.239 31.93,15.239 7.09,0 13.38,-1.451 18.87,-4.354 5.48,-3.064 10.48,-7.015 14.99,-11.852 l 15,17.658 c -6.45,7.418 -13.87,13.143 -22.25,17.174 -8.23,3.871 -17.42,5.806 -27.58,5.806 z m 127.23,0 c -10.32,0 -19.76,-1.855 -28.3,-5.564 -8.55,-3.87 -15.89,-9.353 -22.01,-16.449 -6.13,-7.256 -10.89,-15.965 -14.28,-26.124 -3.38,-10.16 -5.08,-21.69 -5.08,-34.591 0,-12.74 1.7,-24.109 5.08,-34.107 3.39,-10.159 8.15,-18.706 14.28,-25.641 6.12,-6.934 13.46,-12.256 22.01,-15.965 8.54,-3.709 17.98,-5.563 28.3,-5.563 10.32,0 19.75,1.854 28.3,5.563 8.55,3.709 15.89,9.031 22.01,15.965 6.29,6.935 11.13,15.482 14.52,25.641 3.38,9.998 5.08,21.367 5.08,34.107 0,12.901 -1.7,24.431 -5.08,34.591 -3.39,10.159 -8.23,18.868 -14.52,26.124 -6.12,7.096 -13.46,12.579 -22.01,16.449 -8.55,3.709 -17.98,5.564 -28.3,5.564 z m 0,-24.432 c 6.29,0 11.93,-1.37 16.93,-4.112 5,-2.741 9.27,-6.611 12.82,-11.611 3.55,-5.16 6.29,-11.288 8.23,-18.384 1.93,-7.256 2.9,-15.319 2.9,-24.189 0,-17.739 -3.71,-31.607 -11.13,-41.606 -7.25,-10.159 -17.17,-15.239 -29.75,-15.239 -12.58,0 -22.58,5.08 -30,15.239 -7.25,9.999 -10.88,23.867 -10.88,41.606 0,8.87 0.97,16.933 2.9,24.189 1.94,7.096 4.68,13.224 8.23,18.384 3.54,5 7.82,8.87 12.82,11.611 5,2.742 10.64,4.112 16.93,4.112 z m 99.13,21.529 v -158.198 h 31.69 l 28.06,77.406 c 1.78,4.999 3.47,10.159 5.08,15.481 1.61,5.16 3.31,10.321 5.08,15.481 h 0.97 c 1.77,-5.16 3.39,-10.321 4.84,-15.481 1.61,-5.322 3.3,-10.482 5.08,-15.481 l 27.33,-77.406 h 31.93 v 158.198 h -25.88 v -72.326 c 0,-3.709 0.08,-7.741 0.24,-12.095 0.32,-4.354 0.64,-8.708 0.97,-13.062 0.32,-4.515 0.72,-8.87 1.21,-13.062 0.48,-4.354 0.88,-8.386 1.21,-12.095 h -0.97 l -12.82,36.768 -25.88,71.116 h -16.7 l -26.12,-71.116 -12.58,-36.768 h -0.97 c 0.33,3.709 0.65,7.741 0.97,12.095 0.49,4.192 0.89,8.547 1.21,13.062 0.49,4.354 0.81,8.708 0.97,13.062 0.32,4.354 0.48,8.386 0.48,12.095 v 72.326 z m 177.82,0 v -158.198 h 49.83 c 8.71,0 16.78,0.806 24.19,2.419 7.58,1.612 14.11,4.354 19.6,8.224 5.48,3.87 9.75,8.95 12.82,15.239 3.06,6.128 4.59,13.788 4.59,22.98 0,8.708 -1.53,16.288 -4.59,22.738 -3.07,6.451 -7.34,11.853 -12.82,16.207 -5.32,4.193 -11.69,7.337 -19.11,9.434 -7.26,1.935 -15.16,2.903 -23.71,2.903 h -22.74 v 58.054 z m 28.06,-80.551 h 20.56 c 23.23,0 34.84,-9.595 34.84,-28.785 0,-9.998 -3.07,-16.852 -9.19,-20.561 -5.97,-3.87 -14.84,-5.805 -26.61,-5.805 h -19.6 z m 169.58,83.454 c -9.19,0 -17.5,-1.29 -24.92,-3.871 -7.25,-2.741 -13.54,-7.014 -18.86,-12.82 -5.16,-5.805 -9.2,-13.223 -12.1,-22.254 -2.74,-9.192 -4.11,-20.319 -4.11,-33.381 v -88.775 h 28.06 v 90.952 c 0,8.546 0.72,15.803 2.18,21.77 1.61,5.805 3.79,10.482 6.53,14.03 2.9,3.548 6.29,6.128 10.16,7.74 3.87,1.452 8.22,2.177 13.06,2.177 4.84,0 9.27,-0.725 13.3,-2.177 4.03,-1.612 7.5,-4.192 10.4,-7.74 2.91,-3.548 5.16,-8.225 6.78,-14.03 1.61,-5.967 2.42,-13.224 2.42,-21.77 v -90.952 h 26.85 v 88.775 c 0,13.062 -1.37,24.189 -4.12,33.381 -2.74,9.031 -6.77,16.449 -12.09,22.254 -5.16,5.806 -11.45,10.079 -18.87,12.82 -7.25,2.581 -15.48,3.871 -24.67,3.871 z m 128.75,-2.903 v -134.493 h -45.72 v -23.705 h 119.5 v 23.705 h -45.72 v 134.493 z m 97.7,0 v -158.198 h 95.31 v 23.705 h -67.25 v 40.396 h 56.85 v 23.706 h -56.85 v 46.685 h 69.67 v 23.706 z m 127.74,0 v -158.198 h 53.46 c 8.23,0 15.89,0.806 22.98,2.419 7.1,1.612 13.23,4.273 18.39,7.982 5.16,3.548 9.19,8.305 12.09,14.272 3.06,5.966 4.6,13.385 4.6,22.254 0,12.095 -2.91,21.851 -8.71,29.269 -5.65,7.418 -13.23,12.74 -22.74,15.965 l 37.74,66.037 h -31.45 l -34.11,-61.925 h -24.19 v 61.925 z m 28.06,-84.179 h 22.5 c 10.8,0 19.03,-2.258 24.67,-6.773 5.81,-4.515 8.71,-11.288 8.71,-20.319 0,-9.192 -2.9,-15.562 -8.71,-19.11 -5.64,-3.547 -13.87,-5.321 -24.67,-5.321 h -22.5 z m 204.88,87.082 c -10.64,0 -20.96,-2.016 -30.96,-6.048 -9.83,-4.031 -18.54,-9.756 -26.12,-17.174 l 16.45,-19.11 c 5.64,5.322 12.09,9.676 19.35,13.063 7.26,3.225 14.51,4.837 21.77,4.837 9.03,0 15.88,-1.854 20.56,-5.563 4.68,-3.709 7.01,-8.628 7.01,-14.756 0,-3.225 -0.64,-5.966 -1.93,-8.224 -1.13,-2.258 -2.82,-4.193 -5.08,-5.805 -2.1,-1.774 -4.68,-3.387 -7.74,-4.838 -2.9,-1.452 -6.13,-2.903 -9.68,-4.354 l -21.77,-9.434 c -3.87,-1.613 -7.74,-3.629 -11.61,-6.048 -3.71,-2.418 -7.09,-5.321 -10.16,-8.708 -3.06,-3.386 -5.56,-7.337 -7.5,-11.853 -1.77,-4.515 -2.66,-9.675 -2.66,-15.481 0,-6.289 1.29,-12.094 3.87,-17.416 2.74,-5.483 6.45,-10.24 11.13,-14.272 4.68,-4.031 10.24,-7.176 16.69,-9.434 6.61,-2.257 13.79,-3.386 21.53,-3.386 9.19,0 18.06,1.854 26.61,5.563 8.54,3.548 15.88,8.386 22.01,14.514 l -14.27,17.9 c -5.16,-4.193 -10.48,-7.499 -15.97,-9.917 -5.48,-2.419 -11.61,-3.629 -18.38,-3.629 -7.58,0 -13.63,1.693 -18.14,5.08 -4.52,3.225 -6.78,7.74 -6.78,13.546 0,3.064 0.65,5.725 1.94,7.982 1.45,2.097 3.31,4.032 5.56,5.806 2.42,1.612 5.16,3.144 8.23,4.596 3.06,1.29 6.21,2.58 9.43,3.87 l 21.53,8.95 c 4.68,1.935 8.95,4.193 12.82,6.773 3.87,2.58 7.18,5.564 9.92,8.95 2.9,3.387 5.16,7.338 6.77,11.853 1.61,4.354 2.42,9.434 2.42,15.239 0,6.451 -1.29,12.498 -3.87,18.142 -2.58,5.645 -6.37,10.644 -11.37,14.998 -4.84,4.193 -10.8,7.579 -17.9,10.159 -6.93,2.419 -14.84,3.629 -23.71,3.629 z m 146.33,0 c -10,0 -19.35,-1.774 -28.06,-5.322 -8.71,-3.548 -16.29,-8.789 -22.74,-15.723 -6.29,-6.934 -11.28,-15.481 -14.99,-25.641 -3.71,-10.159 -5.57,-21.77 -5.57,-34.832 0,-12.901 1.86,-24.432 5.57,-34.591 3.87,-10.321 9.03,-19.029 15.48,-26.125 6.61,-7.095 14.27,-12.498 22.98,-16.207 8.87,-3.709 18.3,-5.563 28.3,-5.563 10,0 18.87,2.016 26.61,6.047 7.74,4.032 14.11,8.708 19.11,14.03 l -15,18.142 c -4.19,-4.193 -8.71,-7.499 -13.55,-9.918 -4.83,-2.58 -10.32,-3.87 -16.45,-3.87 -6.45,0 -12.41,1.371 -17.9,4.112 -5.32,2.581 -9.99,6.37 -14.03,11.369 -3.87,4.838 -6.93,10.805 -9.19,17.9 -2.09,7.096 -3.14,15.078 -3.14,23.948 0,18.061 3.87,32.252 11.61,42.573 7.9,10.16 18.54,15.239 31.93,15.239 7.09,0 13.38,-1.451 18.87,-4.354 5.48,-3.064 10.48,-7.015 14.99,-11.852 l 15,17.658 c -6.45,7.418 -13.87,13.143 -22.25,17.174 -8.23,3.871 -17.42,5.806 -27.58,5.806 z m 73.82,-2.903 v -158.198 h 28.06 v 158.198 z m 65.85,0 v -158.198 h 95.31 v 23.705 h -67.25 v 40.396 h 56.85 v 23.706 h -56.85 v 46.685 h 69.67 v 23.706 z m 127.74,0 v -158.198 h 28.79 l 49.34,89.016 16.21,33.624 h 0.97 c -0.65,-8.225 -1.45,-17.014 -2.42,-26.367 -0.81,-9.514 -1.21,-18.706 -1.21,-27.576 v -68.697 h 26.85 v 158.198 h -28.79 l -49.34,-89.017 -16.21,-33.623 h -0.97 c 0.65,8.386 1.37,17.174 2.18,26.366 0.97,9.192 1.45,18.223 1.45,27.092 v 69.182 z m 219.46,2.903 c -10,0 -19.35,-1.774 -28.06,-5.322 -8.71,-3.548 -16.29,-8.789 -22.74,-15.723 -6.29,-6.934 -11.29,-15.481 -15,-25.641 -3.7,-10.159 -5.56,-21.77 -5.56,-34.832 0,-12.901 1.86,-24.432 5.56,-34.591 3.87,-10.321 9.03,-19.029 15.49,-26.125 6.61,-7.095 14.27,-12.498 22.98,-16.207 8.86,-3.709 18.3,-5.563 28.3,-5.563 9.99,0 18.86,2.016 26.6,6.047 7.75,4.032 14.12,8.708 19.11,14.03 l -14.99,18.142 c -4.2,-4.193 -8.71,-7.499 -13.55,-9.918 -4.84,-2.58 -10.32,-3.87 -16.45,-3.87 -6.45,0 -12.41,1.371 -17.9,4.112 -5.32,2.581 -10,6.37 -14.03,11.369 -3.87,4.838 -6.93,10.805 -9.19,17.9 -2.1,7.096 -3.14,15.078 -3.14,23.948 0,18.061 3.87,32.252 11.61,42.573 7.9,10.16 18.54,15.239 31.93,15.239 7.09,0 13.38,-1.451 18.86,-4.354 5.49,-3.064 10.49,-7.015 15,-11.852 l 15,17.658 c -6.45,7.418 -13.87,13.143 -22.26,17.174 -8.22,3.871 -17.41,5.806 -27.57,5.806 z m 73.82,-2.903 v -158.198 h 95.3 v 23.705 h -67.24 v 40.396 h 56.84 v 23.706 h -56.84 v 46.685 h 69.66 v 23.706 z m -1900.39,215.903 c -9.19,0 -17.49,-1.29 -24.91,-3.871 -7.26,-2.741 -13.55,-7.014 -18.87,-12.82 -5.16,-5.805 -9.19,-13.223 -12.1,-22.254 -2.74,-9.192 -4.11,-20.319 -4.11,-33.381 v -88.775 h 28.06 v 90.952 c 0,8.546 0.73,15.803 2.18,21.77 1.61,5.805 3.79,10.482 6.53,14.03 2.9,3.548 6.29,6.128 10.16,7.74 3.87,1.452 8.22,2.177 13.06,2.177 4.84,0 9.27,-0.725 13.31,-2.177 4.03,-1.612 7.5,-4.192 10.4,-7.74 2.9,-3.548 5.16,-8.225 6.77,-14.03 1.61,-5.967 2.42,-13.224 2.42,-21.77 v -90.952 h 26.85 v 88.775 c 0,13.062 -1.37,24.189 -4.11,33.381 -2.74,9.031 -6.78,16.449 -12.1,22.254 -5.16,5.806 -11.45,10.079 -18.86,12.82 -7.26,2.581 -15.49,3.871 -24.68,3.871 z m 118.6,-2.903 v -158.198 h 28.78 l 49.35,89.016 16.2,33.624 h 0.97 c -0.64,-8.225 -1.45,-17.014 -2.42,-26.367 -0.8,-9.514 -1.21,-18.706 -1.21,-27.576 v -68.697 h 26.85 v 158.198 h -28.78 l -49.35,-89.017 -16.2,-33.623 h -0.97 c 0.64,8.386 1.37,17.174 2.18,26.366 0.96,9.192 1.45,18.223 1.45,27.092 v 69.182 z m 178.09,0 v -158.198 h 42.33 c 24.19,0 43.06,6.531 56.6,19.593 13.55,13.062 20.32,32.656 20.32,58.78 0,13.062 -1.77,24.593 -5.32,34.591 -3.38,9.998 -8.38,18.384 -15,25.157 -6.45,6.612 -14.35,11.611 -23.7,14.997 -9.19,3.387 -19.67,5.08 -31.45,5.08 z m 28.06,-22.738 h 12.34 c 16.12,0 28.46,-4.596 37.01,-13.788 8.7,-9.353 13.06,-23.786 13.06,-43.299 0,-19.351 -4.36,-33.462 -13.06,-42.331 -8.71,-8.87 -21.05,-13.304 -37.01,-13.304 h -12.34 z m 142.48,22.738 v -158.198 h 95.3 v 23.705 h -67.24 v 40.396 h 56.84 v 23.706 h -56.84 v 46.685 h 69.66 v 23.706 z m 149.51,0 v -158.198 h 53.45 c 8.23,0 15.89,0.806 22.98,2.419 7.1,1.612 13.23,4.273 18.39,7.982 5.16,3.548 9.19,8.305 12.09,14.272 3.07,5.966 4.6,13.385 4.6,22.254 0,12.095 -2.9,21.851 -8.71,29.269 -5.64,7.418 -13.22,12.74 -22.74,15.965 l 37.74,66.037 h -31.45 l -34.1,-61.925 h -24.19 v 61.925 z m 28.06,-84.179 h 22.49 c 10.81,0 19.03,-2.258 24.68,-6.773 5.8,-4.515 8.7,-11.288 8.7,-20.319 0,-9.192 -2.9,-15.562 -8.7,-19.11 -5.65,-3.547 -13.87,-5.321 -24.68,-5.321 h -22.49 z m 200.72,87.082 c -10.64,0 -20.56,-1.774 -29.75,-5.322 -9.03,-3.548 -16.94,-8.789 -23.71,-15.723 -6.61,-6.934 -11.77,-15.481 -15.48,-25.641 -3.71,-10.159 -5.56,-21.77 -5.56,-34.832 0,-12.901 1.93,-24.432 5.8,-34.591 3.87,-10.321 9.11,-19.029 15.72,-26.125 6.78,-7.095 14.68,-12.498 23.71,-16.207 9.19,-3.709 19.03,-5.563 29.51,-5.563 11.29,0 20.8,2.096 28.54,6.289 7.91,4.032 14.36,8.628 19.36,13.788 l -15,18.142 c -4.03,-3.87 -8.55,-7.095 -13.55,-9.676 -4.84,-2.741 -10.96,-4.112 -18.38,-4.112 -7.1,0 -13.55,1.371 -19.35,4.112 -5.65,2.581 -10.57,6.37 -14.76,11.369 -4.03,4.838 -7.18,10.805 -9.43,17.9 -2.26,7.096 -3.39,15.078 -3.39,23.948 0,18.061 4.03,32.252 12.1,42.573 8.22,10.16 20.31,15.239 36.28,15.239 4.51,0 8.79,-0.564 12.82,-1.693 4.03,-1.29 7.34,-3.064 9.92,-5.321 v -34.107 h -30 v -22.98 h 55.15 v 69.665 c -5.32,5.322 -12.41,9.837 -21.28,13.546 -8.71,3.548 -18.47,5.322 -29.27,5.322 z m 104.96,-2.903 v -158.198 h 53.46 c 8.23,0 15.89,0.806 22.98,2.419 7.1,1.612 13.23,4.273 18.39,7.982 5.16,3.548 9.19,8.305 12.09,14.272 3.06,5.966 4.6,13.385 4.6,22.254 0,12.095 -2.91,21.851 -8.71,29.269 -5.65,7.418 -13.23,12.74 -22.74,15.965 l 37.74,66.037 h -31.45 l -34.11,-61.925 h -24.19 v 61.925 z m 28.06,-84.179 h 22.5 c 10.8,0 19.03,-2.258 24.67,-6.773 5.81,-4.515 8.71,-11.288 8.71,-20.319 0,-9.192 -2.9,-15.562 -8.71,-19.11 -5.64,-3.547 -13.87,-5.321 -24.67,-5.321 h -22.5 z m 165.44,0 -5.56,19.352 h 40.4 l -5.57,-19.352 c -2.58,-8.386 -5.08,-17.013 -7.5,-25.883 -2.25,-8.869 -4.51,-17.658 -6.77,-26.366 h -0.97 c -2.25,8.869 -4.51,17.739 -6.77,26.608 -2.26,8.708 -4.68,17.255 -7.26,25.641 z m -52.97,84.179 51.52,-158.198 h 32.9 l 51.52,158.198 h -29.51 l -12.33,-42.815 h -53.22 l -12.34,42.815 z m 174.79,0 v -158.198 h 42.34 c 24.19,0 43.05,6.531 56.6,19.593 13.55,13.062 20.32,32.656 20.32,58.78 0,13.062 -1.78,24.593 -5.32,34.591 -3.39,9.998 -8.39,18.384 -15,25.157 -6.45,6.612 -14.35,11.611 -23.71,14.997 -9.19,3.387 -19.67,5.08 -31.44,5.08 z m 28.06,-22.738 h 12.34 c 16.13,0 28.46,-4.596 37.01,-13.788 8.71,-9.353 13.06,-23.786 13.06,-43.299 0,-19.351 -4.35,-33.462 -13.06,-42.331 -8.71,-8.87 -21.04,-13.304 -37.01,-13.304 h -12.34 z m 201.74,25.641 c -9.19,0 -17.49,-1.29 -24.91,-3.871 -7.26,-2.741 -13.55,-7.014 -18.87,-12.82 -5.16,-5.805 -9.19,-13.223 -12.09,-22.254 -2.74,-9.192 -4.12,-20.319 -4.12,-33.381 v -88.775 h 28.06 v 90.952 c 0,8.546 0.73,15.803 2.18,21.77 1.61,5.805 3.79,10.482 6.53,14.03 2.9,3.548 6.29,6.128 10.16,7.74 3.87,1.452 8.23,2.177 13.06,2.177 4.84,0 9.28,-0.725 13.31,-2.177 4.03,-1.612 7.5,-4.192 10.4,-7.74 2.9,-3.548 5.16,-8.225 6.77,-14.03 1.62,-5.967 2.42,-13.224 2.42,-21.77 v -90.952 h 26.85 v 88.775 c 0,13.062 -1.37,24.189 -4.11,33.381 -2.74,9.031 -6.77,16.449 -12.1,22.254 -5.16,5.806 -11.44,10.079 -18.86,12.82 -7.26,2.581 -15.48,3.871 -24.68,3.871 z m 147.7,-87.082 -5.56,19.352 h 40.4 l -5.57,-19.352 c -2.58,-8.386 -5.08,-17.013 -7.5,-25.883 -2.25,-8.869 -4.51,-17.658 -6.77,-26.366 h -0.97 c -2.25,8.869 -4.51,17.739 -6.77,26.608 -2.26,8.708 -4.68,17.255 -7.26,25.641 z m -52.97,84.179 51.52,-158.198 h 32.9 l 51.52,158.198 h -29.51 l -12.33,-42.815 h -53.22 l -12.34,42.815 z m 191.14,0 v -134.493 h -45.72 v -23.705 h 119.49 v 23.705 h -45.71 v 134.493 z m 119.47,0 v -158.198 h 95.3 v 23.705 h -67.24 v 40.396 h 56.84 v 23.706 h -56.84 v 46.685 h 69.66 v 23.706 z m -1908.94,230.096 c -11.35,0 -22.36,-2.15 -33.02,-6.45 -10.5,-4.3 -19.78,-10.406 -27.87,-18.318 l 17.55,-20.382 c 6.02,5.676 12.9,10.32 20.64,13.932 7.74,3.44 15.48,5.16 23.22,5.16 9.63,0 16.94,-1.978 21.93,-5.934 4.98,-3.956 7.48,-9.202 7.48,-15.738 0,-3.44 -0.69,-6.364 -2.07,-8.772 -1.2,-2.408 -3.01,-4.472 -5.41,-6.192 -2.24,-1.892 -4.99,-3.612 -8.26,-5.16 -3.1,-1.548 -6.54,-3.096 -10.32,-4.644 l -23.22,-10.062 c -4.13,-1.72 -8.26,-3.87 -12.38,-6.45 -3.96,-2.58 -7.57,-5.676 -10.84,-9.288 -3.27,-3.612 -5.93,-7.826 -8,-12.642 -1.89,-4.816 -2.84,-10.32 -2.84,-16.512 0,-6.708 1.38,-12.9 4.13,-18.576 2.93,-5.848 6.88,-10.922 11.87,-15.222 4.99,-4.3 10.92,-7.654 17.8,-10.062 7.05,-2.408 14.71,-3.612 22.96,-3.612 9.81,0 19.27,1.978 28.38,5.934 9.12,3.784 16.95,8.944 23.48,15.48 l -15.22,19.092 c -5.5,-4.472 -11.18,-7.998 -17.03,-10.578 -5.85,-2.58 -12.38,-3.87 -19.61,-3.87 -8.08,0 -14.53,1.806 -19.35,5.418 -4.81,3.44 -7.22,8.256 -7.22,14.448 0,3.268 0.69,6.106 2.06,8.514 1.55,2.236 3.53,4.3 5.94,6.192 2.58,1.72 5.5,3.354 8.77,4.902 3.27,1.376 6.62,2.752 10.06,4.128 l 22.96,9.546 c 4.99,2.064 9.55,4.472 13.68,7.224 4.13,2.752 7.65,5.934 10.58,9.546 3.09,3.612 5.5,7.826 7.22,12.642 1.72,4.644 2.58,10.062 2.58,16.254 0,6.88 -1.38,13.33 -4.13,19.35 -2.75,6.02 -6.79,11.352 -12.12,15.996 -5.16,4.472 -11.53,8.084 -19.1,10.836 -7.39,2.58 -15.82,3.87 -25.28,3.87 z m 138.39,-3.096 v -143.448 h -48.76 v -25.284 h 127.45 v 25.284 h -48.76 v 143.448 z m 188.05,3.096 c -9.8,0 -18.66,-1.376 -26.57,-4.128 -7.74,-2.924 -14.45,-7.482 -20.12,-13.674 -5.51,-6.192 -9.81,-14.104 -12.9,-23.736 -2.93,-9.804 -4.39,-21.672 -4.39,-35.604 v -94.686 h 29.93 v 97.008 c 0,9.116 0.77,16.856 2.32,23.22 1.72,6.192 4.04,11.18 6.97,14.964 3.09,3.784 6.7,6.536 10.83,8.256 4.13,1.548 8.77,2.322 13.93,2.322 5.16,0 9.89,-0.774 14.19,-2.322 4.3,-1.72 8,-4.472 11.1,-8.256 3.09,-3.784 5.5,-8.772 7.22,-14.964 1.72,-6.364 2.58,-14.104 2.58,-23.22 v -97.008 h 28.64 v 94.686 c 0,13.932 -1.46,25.8 -4.39,35.604 -2.92,9.632 -7.22,17.544 -12.9,23.736 -5.5,6.192 -12.21,10.75 -20.12,13.674 -7.74,2.752 -16.51,4.128 -26.32,4.128 z m 123.92,-3.096 v -168.732 h 45.15 c 25.8,0 45.92,6.966 60.37,20.898 14.45,13.932 21.67,34.83 21.67,62.694 0,13.932 -1.89,26.23 -5.68,36.894 -3.61,10.664 -8.94,19.608 -15.99,26.832 -6.88,7.052 -15.31,12.384 -25.29,15.996 -9.8,3.612 -20.98,5.418 -33.54,5.418 z m 29.92,-24.252 h 13.16 c 17.2,0 30.36,-4.902 39.48,-14.706 9.28,-9.976 13.93,-25.37 13.93,-46.182 0,-20.64 -4.65,-35.69 -13.93,-45.15 -9.29,-9.46 -22.45,-14.19 -39.48,-14.19 h -13.16 z m 149.39,24.252 v -168.732 h 101.65 v 25.284 h -71.73 v 43.086 h 60.63 v 25.284 h -60.63 v 49.794 h 74.31 v 25.284 z m 156.88,0 v -168.732 h 30.7 l 52.64,94.944 17.28,35.862 h 1.03 c -0.68,-8.772 -1.54,-18.146 -2.58,-28.122 -0.86,-10.148 -1.29,-19.952 -1.29,-29.412 v -73.272 h 28.64 v 168.732 h -30.7 l -52.63,-94.944 -17.29,-35.862 h -1.03 c 0.69,8.944 1.46,18.318 2.32,28.122 1.03,9.804 1.55,19.436 1.55,28.896 v 73.788 z m 221.43,0 v -143.448 h -48.76 v -25.284 h 127.45 v 25.284 h -48.76 v 143.448 z m 176.5,0 v -168.732 h 53.92 c 8.77,0 16.77,0.774 23.99,2.322 7.4,1.376 13.76,3.698 19.09,6.966 5.51,3.096 9.72,7.31 12.65,12.642 3.09,5.332 4.64,11.868 4.64,19.608 0,8.084 -2.06,15.566 -6.19,22.446 -4.13,6.88 -9.89,11.61 -17.29,14.19 v 1.032 c 9.29,2.064 16.94,6.45 22.96,13.158 6.2,6.536 9.29,15.48 9.29,26.832 0,8.428 -1.63,15.738 -4.9,21.93 -3.27,6.192 -7.83,11.352 -13.67,15.48 -5.68,4.128 -12.47,7.224 -20.39,9.288 -7.91,1.892 -16.51,2.838 -25.8,2.838 z m 29.92,-99.072 h 21.42 c 11.87,0 20.38,-2.15 25.54,-6.45 5.33,-4.3 8,-10.062 8,-17.286 0,-8.256 -2.75,-14.104 -8.26,-17.544 -5.5,-3.44 -13.76,-5.16 -24.77,-5.16 h -21.93 z m 0,75.852 h 25.29 c 12.38,0 21.93,-2.236 28.64,-6.708 6.7,-4.644 10.06,-11.696 10.06,-21.156 0,-8.944 -3.27,-15.394 -9.81,-19.35 -6.53,-4.128 -16.16,-6.192 -28.89,-6.192 h -25.29 z m 207.61,26.316 c -11.01,0 -21.07,-1.978 -30.18,-5.934 -9.12,-4.128 -16.95,-9.976 -23.48,-17.544 -6.54,-7.74 -11.61,-17.028 -15.22,-27.864 -3.62,-10.836 -5.42,-23.134 -5.42,-36.894 0,-13.588 1.8,-25.714 5.42,-36.378 3.61,-10.836 8.68,-19.952 15.22,-27.348 6.53,-7.396 14.36,-13.072 23.48,-17.028 9.11,-3.956 19.17,-5.934 30.18,-5.934 11.01,0 21.07,1.978 30.19,5.934 9.11,3.956 16.94,9.632 23.48,17.028 6.7,7.396 11.86,16.512 15.48,27.348 3.61,10.664 5.41,22.79 5.41,36.378 0,13.76 -1.8,26.058 -5.41,36.894 -3.62,10.836 -8.78,20.124 -15.48,27.864 -6.54,7.568 -14.37,13.416 -23.48,17.544 -9.12,3.956 -19.18,5.934 -30.19,5.934 z m 0,-26.058 c 6.71,0 12.73,-1.462 18.06,-4.386 5.33,-2.924 9.89,-7.052 13.68,-12.384 3.78,-5.504 6.7,-12.04 8.77,-19.608 2.06,-7.74 3.09,-16.34 3.09,-25.8 0,-18.92 -3.95,-33.712 -11.86,-44.376 -7.74,-10.836 -18.32,-16.254 -31.74,-16.254 -13.41,0 -24.08,5.418 -31.99,16.254 -7.74,10.664 -11.61,25.456 -11.61,44.376 0,9.46 1.03,18.06 3.1,25.8 2.06,7.568 4.98,14.104 8.77,19.608 3.78,5.332 8.34,9.46 13.67,12.384 5.33,2.924 11.35,4.386 18.06,4.386 z m 158.43,-66.822 -5.93,20.64 h 43.08 l -5.93,-20.64 c -2.75,-8.944 -5.42,-18.146 -8,-27.606 -2.41,-9.46 -4.82,-18.834 -7.22,-28.122 h -1.04 c -2.4,9.46 -4.81,18.92 -7.22,28.38 -2.41,9.288 -4.99,18.404 -7.74,27.348 z m -56.5,89.784 54.95,-168.732 h 35.09 l 54.95,168.732 h -31.47 l -13.16,-45.666 h -56.76 l -13.16,45.666 z m 183.85,0 v -168.732 h 57.02 c 8.77,0 16.94,0.86 24.51,2.58 7.57,1.72 14.1,4.558 19.61,8.514 5.5,3.784 9.8,8.858 12.9,15.222 3.27,6.364 4.9,14.276 4.9,23.736 0,12.9 -3.1,23.306 -9.29,31.218 -6.02,7.912 -14.1,13.588 -24.25,17.028 l 40.25,70.434 h -33.54 l -36.38,-66.048 h -25.8 v 66.048 z m 29.93,-89.784 h 23.99 c 11.53,0 20.3,-2.408 26.32,-7.224 6.19,-4.816 9.29,-12.04 9.29,-21.672 0,-9.804 -3.1,-16.598 -9.29,-20.382 -6.02,-3.784 -14.79,-5.676 -26.32,-5.676 h -23.99 z m 140.82,89.784 v -168.732 h 45.15 c 25.8,0 45.92,6.966 60.37,20.898 14.45,13.932 21.67,34.83 21.67,62.694 0,13.932 -1.89,26.23 -5.68,36.894 -3.61,10.664 -8.94,19.608 -15.99,26.832 -6.88,7.052 -15.31,12.384 -25.29,15.996 -9.8,3.612 -20.98,5.418 -33.54,5.418 z m 29.92,-24.252 h 13.16 c 17.2,0 30.36,-4.902 39.48,-14.706 9.28,-9.976 13.93,-25.37 13.93,-46.182 0,-20.64 -4.65,-35.69 -13.93,-45.15 -9.29,-9.46 -22.45,-14.19 -39.48,-14.19 h -13.16 z" style="fill:#333"/></svg>